<svg width="16" height="16" viewBox="0 0 16 16" fill="none" xmlns="http://www.w3.org/2000/svg">
<path d="M12.3333 11.6667V12.3334H13V11.6667H12.3333ZM3.66667 11.6667H3V12.3334H3.66667V11.6667ZM11.6667 7.33337V11.6667H13V7.33337H11.6667ZM12.3333 11H3.66667V12.3334H12.3333V11ZM4.33333 11.6667V7.33337H3V11.6667H4.33333ZM8 3.66671C10.025 3.66671 11.6667 5.30833 11.6667 7.33337H13C13 4.57195 10.7614 2.33337 8 2.33337V3.66671ZM8 2.33337C5.23858 2.33337 3 4.57195 3 7.33337H4.33333C4.33333 5.30833 5.97496 3.66671 8 3.66671V2.33337ZM2 12.3334H14V11H2V12.3334ZM7.33333 1.33337L7.33333 3.00004L8.66667 3.00004L8.66667 1.33337L7.33333 1.33337ZM5.66667 14.6667H10.3333V13.3334H5.66667V14.6667Z" fill="black" fill-opacity="0.72"/>
</svg>
