<svg width="16" height="16" viewBox="0 0 16 16" fill="none" xmlns="http://www.w3.org/2000/svg">
<path d="M5.43262 4.0201L5.26597 4.6656L5.43262 4.0201ZM5.83712 3.78657L6.47946 3.965L5.83712 3.78657ZM3.2698 8.23354L3.7455 8.70061L3.2698 8.23354ZM3.2698 7.76646L3.7455 7.29939L3.2698 7.76646ZM5.83712 12.2134L5.19477 12.3919L5.83712 12.2134ZM5.43262 11.9799L5.26597 11.3344L5.43262 11.9799ZM10.5675 11.9798L10.4009 12.6253L10.5675 11.9798ZM10.163 12.2134L10.8054 12.3918L10.163 12.2134ZM12.7306 7.76646L13.2063 8.23354L12.7306 7.76646ZM12.7306 8.23354L13.2063 7.76646L12.7306 8.23354ZM10.163 3.78663L10.8054 3.6082V3.6082L10.163 3.78663ZM10.5675 4.02017L10.4009 3.37467L10.5675 4.02017ZM3.51069 3.77604L2.93334 3.44271L3.51069 3.77604ZM2.09739 6.22396L1.52003 5.89063L2.09739 6.22396ZM2.09738 9.77604L1.52003 10.1094L2.09738 9.77604ZM2.14821 9.37584L1.67251 8.90877L2.14821 9.37584ZM3.88269 12.38L3.71604 11.7345L3.88269 12.38ZM3.51069 12.224L4.08804 11.8906L3.51069 12.224ZM6.26557 13.7559L6.90792 13.5775L6.26557 13.7559ZM9.73453 13.7559L9.09218 13.5775L9.73453 13.7559ZM12.4897 12.224L11.9123 11.8906L12.4897 12.224ZM12.1177 12.38L11.951 13.0255L12.1177 12.38ZM13.8522 9.37584L13.3765 9.84291L13.8522 9.37584ZM13.903 9.77604L14.4803 10.1094L13.903 9.77604ZM13.903 6.22396L14.4803 5.89063L13.903 6.22396ZM13.8522 6.62416L14.3279 7.09124L13.8522 6.62416ZM12.1177 3.61996L11.951 2.97446L12.1177 3.61996ZM12.4897 3.77604L11.9123 4.10938L12.4897 3.77604ZM6.26557 2.24412L5.62323 2.06569L6.26557 2.24412ZM9.73453 2.24412L9.09218 2.42255L9.73453 2.24412ZM9.41336 1.33333H6.58675V2.66667H9.41336V1.33333ZM10.8054 3.6082L10.3769 2.06569L9.09218 2.42255L9.52066 3.96506L10.8054 3.6082ZM11.951 2.97446L10.4009 3.37467L10.7342 4.66567L12.2843 4.26546L11.951 2.97446ZM14.4803 5.89063L13.067 3.44271L11.9123 4.10938L13.3256 6.55729L14.4803 5.89063ZM13.2063 8.23354L14.3279 7.09124L13.3765 6.15709L12.2549 7.29939L13.2063 8.23354ZM12.2549 8.70061L13.3765 9.84291L14.3279 8.90877L13.2063 7.76646L12.2549 8.70061ZM13.3256 9.44271L11.9123 11.8906L13.067 12.5573L14.4803 10.1094L13.3256 9.44271ZM12.2843 11.7345L10.7342 11.3343L10.4009 12.6253L11.951 13.0255L12.2843 11.7345ZM10.3769 13.9343L10.8054 12.3918L9.52066 12.0349L9.09218 13.5775L10.3769 13.9343ZM6.58675 14.6667H9.41336V13.3333H6.58675V14.6667ZM5.19477 12.3919L5.62323 13.9343L6.90792 13.5775L6.47946 12.035L5.19477 12.3919ZM4.04934 13.0255L5.59927 12.6254L5.26597 11.3344L3.71604 11.7345L4.04934 13.0255ZM1.52003 10.1094L2.93334 12.5573L4.08804 11.8906L2.67473 9.44271L1.52003 10.1094ZM2.79411 7.76646L1.67251 8.90877L2.62391 9.84291L3.7455 8.70061L2.79411 7.76646ZM3.7455 7.29939L2.62391 6.15709L1.67251 7.09123L2.79411 8.23354L3.7455 7.29939ZM2.67474 6.55729L4.08804 4.10938L2.93334 3.44271L1.52003 5.89063L2.67474 6.55729ZM3.71604 4.26546L5.26597 4.6656L5.59927 3.3746L4.04934 2.97446L3.71604 4.26546ZM5.62323 2.06569L5.19477 3.60814L6.47946 3.965L6.90792 2.42255L5.62323 2.06569ZM5.26597 4.6656C5.79382 4.80188 6.33356 4.49026 6.47946 3.965L5.19477 3.60814C5.24341 3.43305 5.42332 3.32918 5.59927 3.3746L5.26597 4.6656ZM3.7455 8.70061C4.12744 8.31162 4.12744 7.68838 3.7455 7.29939L2.79411 8.23354C2.66679 8.10387 2.66679 7.89613 2.79411 7.76646L3.7455 8.70061ZM6.47946 12.035C6.33356 11.5097 5.79382 11.1981 5.26597 11.3344L5.59927 12.6254C5.42332 12.6708 5.24341 12.567 5.19477 12.3919L6.47946 12.035ZM10.7342 11.3343C10.2063 11.1981 9.66657 11.5097 9.52066 12.0349L10.8054 12.3918C10.7567 12.5669 10.5768 12.6708 10.4009 12.6253L10.7342 11.3343ZM12.2549 7.29939C11.8729 7.68838 11.8729 8.31162 12.2549 8.70061L13.2063 7.76646C13.3336 7.89613 13.3336 8.10387 13.2063 8.23354L12.2549 7.29939ZM9.52066 3.96506C9.66657 4.49033 10.2063 4.80194 10.7342 4.66567L10.4009 3.37467C10.5768 3.32924 10.7567 3.43312 10.8054 3.6082L9.52066 3.96506ZM9.33339 8C9.33339 8.73638 8.73643 9.33333 8.00005 9.33333V10.6667C9.47281 10.6667 10.6667 9.47276 10.6667 8H9.33339ZM8.00005 9.33333C7.26367 9.33333 6.66672 8.73638 6.66672 8H5.33339C5.33339 9.47276 6.52729 10.6667 8.00005 10.6667V9.33333ZM6.66672 8C6.66672 7.26362 7.26367 6.66667 8.00005 6.66667V5.33333C6.52729 5.33333 5.33339 6.52724 5.33339 8H6.66672ZM8.00005 6.66667C8.73643 6.66667 9.33339 7.26362 9.33339 8H10.6667C10.6667 6.52724 9.47281 5.33333 8.00005 5.33333V6.66667ZM4.08804 4.10938C4.01317 4.23905 3.86102 4.30289 3.71604 4.26546L4.04934 2.97446C3.61439 2.86217 3.15794 3.05368 2.93334 3.44271L4.08804 4.10938ZM2.62391 6.15709C2.72881 6.26393 2.7496 6.42762 2.67474 6.55729L1.52003 5.89063C1.29543 6.27965 1.3578 6.7707 1.67251 7.09123L2.62391 6.15709ZM2.67473 9.44271C2.7496 9.57239 2.72881 9.73607 2.62391 9.84291L1.67251 8.90877C1.3578 9.2293 1.29543 9.72035 1.52003 10.1094L2.67473 9.44271ZM3.71604 11.7345C3.86102 11.6971 4.01317 11.761 4.08804 11.8906L2.93334 12.5573C3.15794 12.9463 3.61439 13.1378 4.04934 13.0255L3.71604 11.7345ZM6.58675 13.3333C6.73648 13.3333 6.86784 13.4332 6.90792 13.5775L5.62323 13.9343C5.74346 14.3671 6.13754 14.6667 6.58675 14.6667V13.3333ZM9.09218 13.5775C9.13226 13.4332 9.26362 13.3333 9.41336 13.3333V14.6667C9.86257 14.6667 10.2566 14.3671 10.3769 13.9343L9.09218 13.5775ZM11.9123 11.8906C11.9872 11.761 12.1394 11.6971 12.2843 11.7345L11.951 13.0255C12.386 13.1378 12.8424 12.9463 13.067 12.5573L11.9123 11.8906ZM13.3765 9.84291C13.2716 9.73607 13.2508 9.57239 13.3256 9.44271L14.4803 10.1094C14.7049 9.72035 14.6426 9.2293 14.3279 8.90877L13.3765 9.84291ZM13.3256 6.55729C13.2508 6.42762 13.2716 6.26393 13.3765 6.15709L14.3279 7.09124C14.6426 6.77071 14.7049 6.27965 14.4803 5.89063L13.3256 6.55729ZM12.2843 4.26546C12.1394 4.30289 11.9872 4.23905 11.9123 4.10938L13.067 3.44271C12.8424 3.05368 12.386 2.86217 11.951 2.97446L12.2843 4.26546ZM6.58675 1.33333C6.13754 1.33333 5.74346 1.63287 5.62323 2.06569L6.90792 2.42255C6.86784 2.56682 6.73648 2.66667 6.58675 2.66667V1.33333ZM9.41336 2.66667C9.26362 2.66667 9.13226 2.56682 9.09218 2.42255L10.3769 2.06569C10.2566 1.63287 9.86256 1.33333 9.41336 1.33333V2.66667Z" fill="black" fill-opacity="0.87"/>
</svg>
