<svg width="24" height="24" viewBox="0 0 24 24" fill="none" xmlns="http://www.w3.org/2000/svg">
<path d="M3.77637 5.56604V19.434C3.77637 19.7466 4.02979 20 4.3424 20H17.5859C17.8796 20 18.1245 19.7754 18.1498 19.4828L19.1541 7.87899C19.1827 7.54836 18.922 7.26415 18.5901 7.26415H11.0785L9.59477 5.23223C9.48819 5.08629 9.31834 5 9.13763 5H4.3424C4.02979 5 3.77637 5.25342 3.77637 5.56604Z" fill="white" stroke="#0068FF" stroke-width="1.5"/>
<path d="M6.94619 11.0234L3.79607 19.2309C3.65379 19.6016 3.92746 19.9998 4.32452 19.9998H17.6905C17.9385 19.9998 18.1577 19.8382 18.2311 19.6012L20.7737 11.3937C20.8866 11.0295 20.6143 10.6602 20.233 10.6602H7.47464C7.24028 10.6602 7.03016 10.8046 6.94619 11.0234Z" fill="white" stroke="#0068FF" stroke-width="1.5"/>
</svg>
