<svg width="388" height="342" viewBox="0 0 388 342" fill="none" xmlns="http://www.w3.org/2000/svg">
<rect x="0.5" y="0.5" width="387" height="341" rx="7.5" fill="#FBFCFF" stroke="#D0DFFF" stroke-dasharray="2 2"/>
<g filter="url(#filter0_d_3486_41184)">
<path d="M224.821 50.8261L181.18 126.42C180.194 128.127 180.779 130.309 182.486 131.295L240.63 164.867C242.231 165.791 244.272 165.34 245.334 163.828L287.472 103.823C288.676 102.108 288.15 99.7295 286.335 98.6817L260.363 83.6855L258.446 67.7687C258.311 66.6536 257.66 65.6668 256.687 65.1052L229.695 49.5201C227.988 48.5347 225.806 49.1194 224.821 50.8261Z" fill="#1E69FF"/>
<rect width="58.9139" height="69.9004" rx="3.14746" transform="matrix(0.866009 0.500028 -0.499972 0.866042 231.071 54.4155)" fill="#B0CBFF"/>
<g filter="url(#filter1_d_3486_41184)">
<rect width="58.9139" height="69.9004" rx="3.14746" transform="matrix(0.866009 0.500028 -0.499972 0.866042 236.528 52.9536)" fill="#F2F6FF"/>
</g>
<g filter="url(#filter2_d_3486_41184)">
<rect width="58.9139" height="69.9004" rx="3.14746" transform="matrix(0.866009 0.500028 -0.499972 0.866042 242.848 51.9907)" fill="white"/>
</g>
<rect width="19.9708" height="2.99573" rx="1.49787" transform="matrix(0.866009 0.500028 -0.499972 0.866042 252.245 70.9644)" fill="#E8EFFF"/>
<rect width="30.9548" height="2.99573" rx="1.49787" transform="matrix(0.866009 0.500028 -0.499972 0.866042 248.251 77.8843)" fill="#E8EFFF"/>
<rect width="30.9548" height="2.99573" rx="1.49787" transform="matrix(0.866009 0.500028 -0.499972 0.866042 244.257 84.8027)" fill="#E8EFFF"/>
<g filter="url(#filter3_di_3486_41184)">
<path d="M225.418 90.804L181.958 125.358C179.988 126.924 180.215 129.983 182.395 131.242L241.114 165.146C242.46 165.923 244.154 165.74 245.302 164.693L285.362 128.175C287.146 126.548 286.833 123.655 284.742 122.448L229.423 90.507C228.154 89.7741 226.565 89.8919 225.418 90.804Z" fill="#1E69FF"/>
</g>
<rect width="123.43" height="113.815" rx="3.5067" transform="matrix(0.948717 -0.316126 0.316083 0.948732 80.0023 71.019)" fill="#EFF4FF"/>
<rect width="94.5421" height="48.7779" rx="5.26006" transform="matrix(0.948717 -0.316126 0.316083 0.948732 108.554 95.7817)" fill="#E8F4FF"/>
<path d="M123.171 110.617L201.266 84.5948C202.034 84.3392 202.827 84.2682 203.473 84.3974C204.119 84.5266 204.564 84.8454 204.71 85.2838L207.463 93.5475C207.609 93.9859 207.444 94.5078 207.005 94.9985C206.566 95.4892 205.888 95.9085 205.121 96.1641L127.026 122.187C126.258 122.442 125.465 122.513 124.819 122.384C124.173 122.255 123.729 121.936 123.583 121.498L120.829 113.234C120.683 112.795 120.848 112.274 121.287 111.783C121.726 111.292 122.404 110.873 123.171 110.617V110.617Z" fill="white"/>
<path d="M149.677 104.849L140.423 107.932C139.833 108.129 139.503 108.732 139.685 109.28C139.868 109.827 140.494 110.112 141.083 109.916L150.338 106.832C150.927 106.635 151.257 106.032 151.075 105.485C150.892 104.937 150.266 104.652 149.677 104.849Z" fill="#96C4FF"/>
<path d="M157.513 107.01L141.852 112.229C141.263 112.425 140.932 113.028 141.115 113.576C141.297 114.124 141.923 114.408 142.513 114.212L158.174 108.994C158.764 108.797 159.094 108.194 158.911 107.646C158.729 107.098 158.103 106.814 157.513 107.01Z" fill="#E7F3FE"/>
<path d="M134.508 116.878C136.376 116.256 137.421 114.345 136.843 112.611C136.266 110.877 134.283 109.975 132.416 110.597C130.548 111.22 129.503 113.13 130.081 114.864C130.659 116.599 132.641 117.5 134.508 116.878Z" fill="#6EA8FF"/>
<path d="M113.336 130.177L197.617 102.093C198.445 101.817 199.297 101.727 199.985 101.842C200.674 101.957 201.143 102.267 201.289 102.706L204.042 110.969C204.188 111.408 204 111.938 203.517 112.443C203.035 112.948 202.299 113.386 201.471 113.662L117.19 141.746C116.362 142.022 115.51 142.112 114.822 141.997C114.133 141.882 113.664 141.572 113.518 141.133L110.765 132.87C110.619 132.431 110.808 131.901 111.29 131.396C111.772 130.891 112.508 130.453 113.336 130.177V130.177Z" fill="white"/>
<path d="M139.103 124.161L129.848 127.244C129.259 127.441 128.929 128.044 129.111 128.592C129.293 129.139 129.919 129.424 130.509 129.228L139.763 126.144C140.353 125.948 140.683 125.344 140.501 124.797C140.318 124.249 139.692 123.964 139.103 124.161Z" fill="#96C4FF"/>
<path d="M146.939 126.322L131.278 131.541C130.688 131.737 130.358 132.34 130.541 132.888C130.723 133.436 131.349 133.72 131.939 133.524L147.6 128.306C148.189 128.109 148.52 127.506 148.337 126.958C148.155 126.41 147.529 126.126 146.939 126.322Z" fill="#E7F3FE"/>
<path d="M119.299 137.734C121.167 137.112 122.212 135.201 121.634 133.467C121.057 131.733 119.074 130.831 117.207 131.453C115.339 132.076 114.294 133.986 114.872 135.72C115.45 137.455 117.432 138.356 119.299 137.734Z" fill="#6EA8FF"/>
<path d="M188.111 73.5608L103.83 101.644C102.106 102.219 100.955 103.425 101.259 104.337L104.012 112.601C104.316 113.514 105.96 113.788 107.684 113.214L191.966 85.1301C193.69 84.5556 194.841 83.35 194.536 82.4372L191.783 74.1734C191.479 73.2606 189.835 72.9863 188.111 73.5608Z" fill="white"/>
<path d="M128.921 95.9781L119.667 99.0617C119.077 99.2582 118.747 99.8615 118.929 100.409C119.112 100.957 119.738 101.241 120.328 101.045L129.582 97.9614C130.171 97.7649 130.502 97.1616 130.319 96.6139C130.137 96.0663 129.511 95.7816 128.921 95.9781Z" fill="#96C4FF"/>
<path d="M136.757 98.1397L121.096 103.358C120.507 103.555 120.177 104.158 120.359 104.706C120.542 105.253 121.168 105.538 121.757 105.341L137.418 100.123C138.008 99.9265 138.338 99.3232 138.155 98.7755C137.973 98.2278 137.347 97.9432 136.757 98.1397Z" fill="#E7F3FE"/>
<path d="M114.46 107.768C116.328 107.146 117.373 105.235 116.796 103.501C116.218 101.767 114.235 100.865 112.368 101.488C110.501 102.11 109.455 104.02 110.033 105.754C110.611 107.489 112.593 108.39 114.46 107.768Z" fill="#6EA8FF"/>
<path d="M109.036 158.174L226.137 119.154" stroke="black" stroke-opacity="0.03" stroke-width="0.876676"/>
<path d="M183.787 133.268L190.726 154.092" stroke="black" stroke-opacity="0.03" stroke-width="0.876676"/>
<ellipse rx="1.75078" ry="1.62593" transform="matrix(0.948717 -0.316126 0.316083 0.948732 189.84 48.9867)" fill="#C8CCCF"/>
<ellipse rx="2.62617" ry="2.43889" transform="matrix(0.948717 -0.316126 0.316083 0.948732 179.047 52.5847)" fill="#C8CCCF"/>
<path d="M184.938 53.6528C186.514 53.1276 187.447 51.4904 186.936 49.9543C186.424 48.4183 184.695 47.6682 183.119 48.1934C181.543 48.7186 180.609 50.3559 181.121 51.8919C181.633 53.4279 183.362 54.178 184.938 53.6528Z" fill="#C8CCCF" stroke="white" stroke-width="0.876676"/>
<path d="M125.925 164.543L140.874 159.562" stroke="#6EA8FF" stroke-width="2.63003" stroke-linecap="round"/>
<path d="M159.974 153.197L174.923 148.216" stroke="#6EA8FF" stroke-width="2.63003" stroke-linecap="round"/>
<path d="M201.504 139.359L216.453 134.378" stroke="#6EA8FF" stroke-width="2.63003" stroke-linecap="round"/>
<rect x="113.95" y="39.0098" width="140.792" height="139.803" rx="4" fill="white"/>
<rect x="135.917" y="78.9536" width="107.84" height="59.9158" rx="6" fill="#E8F4FF"/>
<path d="M146.383 101.921H240.279C241.201 101.921 242.086 102.147 242.738 102.548C243.39 102.949 243.756 103.494 243.756 104.061V114.76C243.756 115.328 243.39 115.872 242.738 116.274C242.086 116.675 241.201 116.9 240.279 116.9H146.383C145.461 116.9 144.576 116.675 143.924 116.274C143.272 115.872 142.906 115.328 142.906 114.76V104.061C142.906 103.494 143.272 102.949 143.924 102.548C144.576 102.147 145.461 101.921 146.383 101.921V101.921Z" fill="white"/>
<path d="M177.141 105.488H166.015C165.306 105.488 164.731 106.063 164.731 106.772C164.731 107.481 165.306 108.056 166.015 108.056H177.141C177.85 108.056 178.425 107.481 178.425 106.772C178.425 106.063 177.85 105.488 177.141 105.488Z" fill="#96C4FF"/>
<path d="M184.844 111.051H166.015C165.306 111.051 164.731 111.626 164.731 112.335C164.731 113.044 165.306 113.619 166.015 113.619H184.844C185.553 113.619 186.128 113.044 186.128 112.335C186.128 111.626 185.553 111.051 184.844 111.051Z" fill="#E7F3FE"/>
<path d="M156.387 113.619C158.632 113.619 160.452 111.799 160.452 109.554C160.452 107.308 158.632 105.488 156.387 105.488C154.142 105.488 152.322 107.308 152.322 109.554C152.322 111.799 154.142 113.619 156.387 113.619Z" fill="#6EA8FF"/>
<path d="M128.686 120.895H230.019C231.014 120.895 231.969 121.12 232.673 121.521C233.376 121.923 233.772 122.467 233.772 123.034V133.734C233.772 134.301 233.376 134.845 232.673 135.247C231.969 135.648 231.014 135.873 230.019 135.873H128.686C127.691 135.873 126.736 135.648 126.032 135.247C125.328 134.845 124.933 134.301 124.933 133.734V123.034C124.933 122.467 125.328 121.923 126.032 121.521C126.736 121.12 127.691 120.895 128.686 120.895V120.895Z" fill="white"/>
<path d="M158.741 123.89H147.614C146.905 123.89 146.33 124.465 146.33 125.174C146.33 125.883 146.905 126.458 147.614 126.458H158.741C159.45 126.458 160.024 125.883 160.024 125.174C160.024 124.465 159.45 123.89 158.741 123.89Z" fill="#96C4FF"/>
<path d="M166.444 129.454H147.614C146.905 129.454 146.33 130.028 146.33 130.738C146.33 131.447 146.905 132.021 147.614 132.021H166.444C167.153 132.021 167.727 131.447 167.727 130.738C167.727 130.028 167.153 129.454 166.444 129.454Z" fill="#E7F3FE"/>
<path d="M132.421 132.022C134.667 132.022 136.487 130.201 136.487 127.956C136.487 125.71 134.667 123.89 132.421 123.89C130.176 123.89 128.356 125.71 128.356 127.956C128.356 130.201 130.176 132.022 132.421 132.022Z" fill="#6EA8FF"/>
<path d="M230.019 83.9463H128.686C126.613 83.9463 124.933 84.9043 124.933 86.0861V96.7854C124.933 97.9672 126.613 98.9252 128.686 98.9252H230.019C232.092 98.9252 233.772 97.9672 233.772 96.7854V86.0861C233.772 84.9043 232.092 83.9463 230.019 83.9463Z" fill="white"/>
<path d="M157.883 87.0845H146.757C146.048 87.0845 145.473 87.6593 145.473 88.3684C145.473 89.0775 146.048 89.6523 146.757 89.6523H157.883C158.592 89.6523 159.167 89.0775 159.167 88.3684C159.167 87.6593 158.592 87.0845 157.883 87.0845Z" fill="#96C4FF"/>
<path d="M165.586 92.6479H146.757C146.048 92.6479 145.473 93.2228 145.473 93.9319C145.473 94.6409 146.048 95.2158 146.757 95.2158H165.586C166.295 95.2158 166.87 94.6409 166.87 93.9319C166.87 93.2228 166.295 92.6479 165.586 92.6479Z" fill="#E7F3FE"/>
<path d="M137.986 95.2159C140.231 95.2159 142.051 93.3956 142.051 91.1502C142.051 88.9048 140.231 87.0845 137.986 87.0845C135.74 87.0845 133.92 88.9048 133.92 91.1502C133.92 93.3956 135.74 95.2159 137.986 95.2159Z" fill="#6EA8FF"/>
<path d="M113.95 151.851L254.741 151.851" stroke="black" stroke-opacity="0.03"/>
<path d="M203.817 151.851L203.817 178.813" stroke="black" stroke-opacity="0.03"/>
<ellipse cx="240.762" cy="55.986" rx="1.99704" ry="1.99719" fill="#6EA8FF"/>
<ellipse cx="227.781" cy="55.986" rx="2.99557" ry="2.99579" fill="#6EA8FF"/>
<path d="M233.772 59.4818C235.703 59.4818 237.268 57.9167 237.268 55.986C237.268 54.0554 235.703 52.4902 233.772 52.4902C231.842 52.4902 230.277 54.0554 230.277 55.986C230.277 57.9167 231.842 59.4818 233.772 59.4818Z" fill="#6EA8FF" stroke="white"/>
<path d="M129.926 165.832H147.9" stroke="#6EA8FF" stroke-width="3" stroke-linecap="round"/>
<path d="M170.866 165.832H188.839" stroke="#6EA8FF" stroke-width="3" stroke-linecap="round"/>
<path d="M220.791 165.832H238.765" stroke="#6EA8FF" stroke-width="3" stroke-linecap="round"/>
</g>
<rect x="123" y="53" width="15" height="15" rx="7.5" fill="#6EA8FF"/>
<rect x="94" y="75" width="15" height="15" rx="7.5" fill="#6EA8FF"/>
<defs>
<filter id="filter0_d_3486_41184" x="64" y="25" width="261.001" height="179" filterUnits="userSpaceOnUse" color-interpolation-filters="sRGB">
<feFlood flood-opacity="0" result="BackgroundImageFix"/>
<feColorMatrix in="SourceAlpha" type="matrix" values="0 0 0 0 0 0 0 0 0 0 0 0 0 0 0 0 0 0 127 0" result="hardAlpha"/>
<feOffset dy="9"/>
<feGaussianBlur stdDeviation="8"/>
<feComposite in2="hardAlpha" operator="out"/>
<feColorMatrix type="matrix" values="0 0 0 0 0.105882 0 0 0 0 0.403922 0 0 0 0 1 0 0 0 0.05 0"/>
<feBlend mode="normal" in2="BackgroundImageFix" result="effect1_dropShadow_3486_41184"/>
<feBlend mode="normal" in="SourceGraphic" in2="effect1_dropShadow_3486_41184" result="shape"/>
</filter>
<filter id="filter1_d_3486_41184" x="198.731" y="54.105" width="91.6653" height="95.6924" filterUnits="userSpaceOnUse" color-interpolation-filters="sRGB">
<feFlood flood-opacity="0" result="BackgroundImageFix"/>
<feColorMatrix in="SourceAlpha" type="matrix" values="0 0 0 0 0 0 0 0 0 0 0 0 0 0 0 0 0 0 127 0" result="hardAlpha"/>
<feOffset dy="4"/>
<feGaussianBlur stdDeviation="2"/>
<feComposite in2="hardAlpha" operator="out"/>
<feColorMatrix type="matrix" values="0 0 0 0 0 0 0 0 0 0 0 0 0 0 0 0 0 0 0.25 0"/>
<feBlend mode="normal" in2="BackgroundImageFix" result="effect1_dropShadow_3486_41184"/>
<feBlend mode="normal" in="SourceGraphic" in2="effect1_dropShadow_3486_41184" result="shape"/>
</filter>
<filter id="filter2_d_3486_41184" x="205.051" y="53.1421" width="91.6653" height="95.6924" filterUnits="userSpaceOnUse" color-interpolation-filters="sRGB">
<feFlood flood-opacity="0" result="BackgroundImageFix"/>
<feColorMatrix in="SourceAlpha" type="matrix" values="0 0 0 0 0 0 0 0 0 0 0 0 0 0 0 0 0 0 127 0" result="hardAlpha"/>
<feOffset dy="4"/>
<feGaussianBlur stdDeviation="2"/>
<feComposite in2="hardAlpha" operator="out"/>
<feColorMatrix type="matrix" values="0 0 0 0 0.105882 0 0 0 0 0.403922 0 0 0 0 1 0 0 0 0.1 0"/>
<feBlend mode="normal" in2="BackgroundImageFix" result="effect1_dropShadow_3486_41184"/>
<feBlend mode="normal" in="SourceGraphic" in2="effect1_dropShadow_3486_41184" result="shape"/>
</filter>
<filter id="filter3_di_3486_41184" x="172.742" y="79.0127" width="121.653" height="91.3325" filterUnits="userSpaceOnUse" color-interpolation-filters="sRGB">
<feFlood flood-opacity="0" result="BackgroundImageFix"/>
<feColorMatrix in="SourceAlpha" type="matrix" values="0 0 0 0 0 0 0 0 0 0 0 0 0 0 0 0 0 0 127 0" result="hardAlpha"/>
<feOffset dy="-3.14746"/>
<feGaussianBlur stdDeviation="3.93433"/>
<feComposite in2="hardAlpha" operator="out"/>
<feColorMatrix type="matrix" values="0 0 0 0 0 0 0 0 0 0.407843 0 0 0 0 1 0 0 0 0.1 0"/>
<feBlend mode="normal" in2="BackgroundImageFix" result="effect1_dropShadow_3486_41184"/>
<feBlend mode="normal" in="SourceGraphic" in2="effect1_dropShadow_3486_41184" result="shape"/>
<feColorMatrix in="SourceAlpha" type="matrix" values="0 0 0 0 0 0 0 0 0 0 0 0 0 0 0 0 0 0 127 0" result="hardAlpha"/>
<feOffset dy="-4"/>
<feGaussianBlur stdDeviation="2"/>
<feComposite in2="hardAlpha" operator="arithmetic" k2="-1" k3="1"/>
<feColorMatrix type="matrix" values="0 0 0 0 0.0708333 0 0 0 0 0.444368 0 0 0 0 1 0 0 0 1 0"/>
<feBlend mode="normal" in2="shape" result="effect2_innerShadow_3486_41184"/>
</filter>
</defs>
</svg>
