<svg width="388" height="342" viewBox="0 0 388 342" fill="none" xmlns="http://www.w3.org/2000/svg">
<rect x="0.5" y="0.5" width="387" height="341" rx="7.5" fill="#FBFCFF" stroke="#D0DFFF" stroke-dasharray="2 2"/>
<g filter="url(#filter0_d_3486_41184)">
<path d="M223.821 52.8261L180.18 128.42C179.194 130.127 179.779 132.309 181.486 133.295L239.63 166.867C241.231 167.791 243.272 167.34 244.334 165.828L286.472 105.823C287.676 104.108 287.15 101.729 285.335 100.682L259.363 85.6855L257.446 69.7687C257.311 68.6536 256.66 67.6668 255.687 67.1052L228.695 51.5201C226.988 50.5347 224.806 51.1194 223.821 52.8261Z" fill="#1E69FF"/>
<rect width="58.9139" height="69.9004" rx="3.14746" transform="matrix(0.866009 0.500028 -0.499972 0.866042 230.071 56.4155)" fill="#B0CBFF"/>
<g filter="url(#filter1_d_3486_41184)">
<rect width="58.9139" height="69.9004" rx="3.14746" transform="matrix(0.866009 0.500028 -0.499972 0.866042 235.528 54.9536)" fill="#F2F6FF"/>
</g>
<g filter="url(#filter2_d_3486_41184)">
<rect width="58.9139" height="69.9004" rx="3.14746" transform="matrix(0.866009 0.500028 -0.499972 0.866042 241.848 53.9907)" fill="white"/>
</g>
<rect width="19.9708" height="2.99573" rx="1.49787" transform="matrix(0.866009 0.500028 -0.499972 0.866042 251.245 72.9644)" fill="#E8EFFF"/>
<rect width="30.9548" height="2.99573" rx="1.49787" transform="matrix(0.866009 0.500028 -0.499972 0.866042 247.251 79.8843)" fill="#E8EFFF"/>
<rect width="30.9548" height="2.99573" rx="1.49787" transform="matrix(0.866009 0.500028 -0.499972 0.866042 243.257 86.8027)" fill="#E8EFFF"/>
<g filter="url(#filter3_di_3486_41184)">
<path d="M224.418 92.804L180.958 127.358C178.988 128.924 179.215 131.983 181.395 133.242L240.114 167.146C241.46 167.923 243.154 167.74 244.302 166.693L284.362 130.175C286.146 128.548 285.833 125.655 283.742 124.448L228.423 92.507C227.154 91.7741 225.565 91.8919 224.418 92.804Z" fill="#1E69FF"/>
</g>
<rect width="123.43" height="113.815" rx="3.5067" transform="matrix(0.948717 -0.316126 0.316083 0.948732 79.0023 73.019)" fill="#EFF4FF"/>
<rect width="94.5421" height="48.7779" rx="5.26006" transform="matrix(0.948717 -0.316126 0.316083 0.948732 107.554 97.7817)" fill="#E8F4FF"/>
<path d="M122.171 112.617L200.267 86.5948C201.034 86.3392 201.827 86.2682 202.473 86.3974C203.119 86.5266 203.564 86.8454 203.71 87.2838L206.463 95.5475C206.609 95.9859 206.444 96.5078 206.005 96.9985C205.566 97.4892 204.888 97.9085 204.121 98.1641L126.026 124.187C125.258 124.442 124.465 124.513 123.819 124.384C123.173 124.255 122.729 123.936 122.583 123.498L119.829 115.234C119.683 114.795 119.848 114.274 120.287 113.783C120.726 113.292 121.404 112.873 122.171 112.617V112.617Z" fill="white"/>
<path d="M148.677 106.849L139.423 109.932C138.833 110.129 138.503 110.732 138.685 111.28C138.868 111.827 139.494 112.112 140.083 111.916L149.338 108.832C149.927 108.635 150.257 108.032 150.075 107.485C149.892 106.937 149.266 106.652 148.677 106.849Z" fill="#96C4FF"/>
<path d="M156.513 109.01L140.852 114.229C140.263 114.425 139.932 115.028 140.115 115.576C140.297 116.124 140.923 116.408 141.513 116.212L157.174 110.994C157.764 110.797 158.094 110.194 157.911 109.646C157.729 109.098 157.103 108.814 156.513 109.01Z" fill="#E7F3FE"/>
<path d="M133.508 118.878C135.376 118.256 136.421 116.345 135.843 114.611C135.266 112.877 133.283 111.975 131.416 112.597C129.548 113.22 128.503 115.13 129.081 116.864C129.659 118.599 131.641 119.5 133.508 118.878Z" fill="#6EA8FF"/>
<path d="M112.336 132.177L196.617 104.093C197.445 103.817 198.297 103.727 198.985 103.842C199.674 103.957 200.143 104.267 200.289 104.706L203.042 112.969C203.188 113.408 203 113.938 202.517 114.443C202.035 114.948 201.299 115.386 200.471 115.662L116.19 143.746C115.362 144.022 114.51 144.112 113.822 143.997C113.133 143.882 112.664 143.572 112.518 143.133L109.765 134.87C109.619 134.431 109.808 133.901 110.29 133.396C110.772 132.891 111.508 132.453 112.336 132.177V132.177Z" fill="white"/>
<path d="M138.103 126.161L128.848 129.244C128.259 129.441 127.929 130.044 128.111 130.592C128.293 131.139 128.919 131.424 129.509 131.228L138.763 128.144C139.353 127.948 139.683 127.344 139.501 126.797C139.318 126.249 138.692 125.964 138.103 126.161Z" fill="#96C4FF"/>
<path d="M145.939 128.322L130.278 133.541C129.688 133.737 129.358 134.34 129.541 134.888C129.723 135.436 130.349 135.72 130.939 135.524L146.6 130.306C147.189 130.109 147.52 129.506 147.337 128.958C147.155 128.41 146.529 128.126 145.939 128.322Z" fill="#E7F3FE"/>
<path d="M118.299 139.734C120.167 139.112 121.212 137.201 120.634 135.467C120.057 133.733 118.074 132.831 116.207 133.453C114.339 134.076 113.294 135.986 113.872 137.72C114.45 139.455 116.432 140.356 118.299 139.734Z" fill="#6EA8FF"/>
<path d="M187.111 75.5608L102.83 103.644C101.106 104.219 99.9549 105.425 100.259 106.337L103.012 114.601C103.316 115.514 104.96 115.788 106.684 115.214L190.966 87.1301C192.69 86.5556 193.841 85.35 193.536 84.4372L190.783 76.1734C190.479 75.2606 188.835 74.9863 187.111 75.5608Z" fill="white"/>
<path d="M127.921 97.9781L118.667 101.062C118.077 101.258 117.747 101.861 117.929 102.409C118.112 102.957 118.738 103.241 119.328 103.045L128.582 99.9614C129.171 99.7649 129.502 99.1616 129.319 98.6139C129.137 98.0663 128.511 97.7816 127.921 97.9781Z" fill="#96C4FF"/>
<path d="M135.757 100.14L120.096 105.358C119.507 105.555 119.177 106.158 119.359 106.706C119.542 107.253 120.168 107.538 120.757 107.341L136.418 102.123C137.008 101.926 137.338 101.323 137.155 100.776C136.973 100.228 136.347 99.9432 135.757 100.14Z" fill="#E7F3FE"/>
<path d="M113.46 109.768C115.328 109.146 116.373 107.235 115.796 105.501C115.218 103.767 113.235 102.865 111.368 103.488C109.501 104.11 108.455 106.02 109.033 107.754C109.611 109.489 111.593 110.39 113.46 109.768Z" fill="#6EA8FF"/>
<path d="M108.036 160.174L225.137 121.154" stroke="black" stroke-opacity="0.03" stroke-width="0.876676"/>
<path d="M182.787 135.268L189.726 156.092" stroke="black" stroke-opacity="0.03" stroke-width="0.876676"/>
<ellipse rx="1.75078" ry="1.62593" transform="matrix(0.948717 -0.316126 0.316083 0.948732 188.84 50.9867)" fill="#C8CCCF"/>
<ellipse rx="2.62617" ry="2.43889" transform="matrix(0.948717 -0.316126 0.316083 0.948732 178.047 54.5847)" fill="#C8CCCF"/>
<path d="M183.938 55.6528C185.514 55.1276 186.447 53.4904 185.936 51.9543C185.424 50.4183 183.695 49.6682 182.119 50.1934C180.543 50.7186 179.609 52.3559 180.121 53.8919C180.633 55.4279 182.362 56.178 183.938 55.6528Z" fill="#C8CCCF" stroke="white" stroke-width="0.876676"/>
<path d="M124.925 166.543L139.874 161.562" stroke="#6EA8FF" stroke-width="2.63003" stroke-linecap="round"/>
<path d="M158.974 155.197L173.923 150.216" stroke="#6EA8FF" stroke-width="2.63003" stroke-linecap="round"/>
<path d="M200.504 141.359L215.453 136.378" stroke="#6EA8FF" stroke-width="2.63003" stroke-linecap="round"/>
<rect x="112.95" y="41.0098" width="140.792" height="139.803" rx="4" fill="white"/>
<rect x="134.917" y="80.9536" width="107.84" height="59.9158" rx="6" fill="#E8F4FF"/>
<path d="M145.383 103.921H239.279C240.201 103.921 241.086 104.147 241.738 104.548C242.39 104.949 242.756 105.494 242.756 106.061V116.76C242.756 117.328 242.39 117.872 241.738 118.274C241.086 118.675 240.201 118.9 239.279 118.9H145.383C144.461 118.9 143.576 118.675 142.924 118.274C142.272 117.872 141.906 117.328 141.906 116.76V106.061C141.906 105.494 142.272 104.949 142.924 104.548C143.576 104.147 144.461 103.921 145.383 103.921V103.921Z" fill="white"/>
<path d="M176.141 107.488H165.015C164.306 107.488 163.731 108.063 163.731 108.772C163.731 109.481 164.306 110.056 165.015 110.056H176.141C176.85 110.056 177.425 109.481 177.425 108.772C177.425 108.063 176.85 107.488 176.141 107.488Z" fill="#96C4FF"/>
<path d="M183.844 113.051H165.015C164.306 113.051 163.731 113.626 163.731 114.335C163.731 115.044 164.306 115.619 165.015 115.619H183.844C184.553 115.619 185.128 115.044 185.128 114.335C185.128 113.626 184.553 113.051 183.844 113.051Z" fill="#E7F3FE"/>
<path d="M155.387 115.619C157.632 115.619 159.452 113.799 159.452 111.554C159.452 109.308 157.632 107.488 155.387 107.488C153.142 107.488 151.322 109.308 151.322 111.554C151.322 113.799 153.142 115.619 155.387 115.619Z" fill="#6EA8FF"/>
<path d="M127.686 122.895H229.019C230.014 122.895 230.969 123.12 231.673 123.521C232.376 123.923 232.772 124.467 232.772 125.034V135.734C232.772 136.301 232.376 136.845 231.673 137.247C230.969 137.648 230.014 137.873 229.019 137.873H127.686C126.691 137.873 125.736 137.648 125.032 137.247C124.328 136.845 123.933 136.301 123.933 135.734V125.034C123.933 124.467 124.328 123.923 125.032 123.521C125.736 123.12 126.691 122.895 127.686 122.895V122.895Z" fill="white"/>
<path d="M157.741 125.89H146.614C145.905 125.89 145.33 126.465 145.33 127.174C145.33 127.883 145.905 128.458 146.614 128.458H157.741C158.45 128.458 159.024 127.883 159.024 127.174C159.024 126.465 158.45 125.89 157.741 125.89Z" fill="#96C4FF"/>
<path d="M165.444 131.454H146.614C145.905 131.454 145.33 132.028 145.33 132.738C145.33 133.447 145.905 134.021 146.614 134.021H165.444C166.153 134.021 166.727 133.447 166.727 132.738C166.727 132.028 166.153 131.454 165.444 131.454Z" fill="#E7F3FE"/>
<path d="M131.421 134.022C133.667 134.022 135.487 132.201 135.487 129.956C135.487 127.71 133.667 125.89 131.421 125.89C129.176 125.89 127.356 127.71 127.356 129.956C127.356 132.201 129.176 134.022 131.421 134.022Z" fill="#6EA8FF"/>
<path d="M229.019 85.9463H127.686C125.613 85.9463 123.933 86.9043 123.933 88.0861V98.7854C123.933 99.9672 125.613 100.925 127.686 100.925H229.019C231.092 100.925 232.772 99.9672 232.772 98.7854V88.0861C232.772 86.9043 231.092 85.9463 229.019 85.9463Z" fill="white"/>
<path d="M156.883 89.0845H145.757C145.048 89.0845 144.473 89.6593 144.473 90.3684C144.473 91.0775 145.048 91.6523 145.757 91.6523H156.883C157.592 91.6523 158.167 91.0775 158.167 90.3684C158.167 89.6593 157.592 89.0845 156.883 89.0845Z" fill="#96C4FF"/>
<path d="M164.586 94.6479H145.757C145.048 94.6479 144.473 95.2228 144.473 95.9319C144.473 96.6409 145.048 97.2158 145.757 97.2158H164.586C165.295 97.2158 165.87 96.6409 165.87 95.9319C165.87 95.2228 165.295 94.6479 164.586 94.6479Z" fill="#E7F3FE"/>
<path d="M136.986 97.2159C139.231 97.2159 141.051 95.3956 141.051 93.1502C141.051 90.9048 139.231 89.0845 136.986 89.0845C134.74 89.0845 132.92 90.9048 132.92 93.1502C132.92 95.3956 134.74 97.2159 136.986 97.2159Z" fill="#6EA8FF"/>
<path d="M112.95 153.851L253.741 153.851" stroke="black" stroke-opacity="0.03"/>
<path d="M202.817 153.851L202.817 180.813" stroke="black" stroke-opacity="0.03"/>
<ellipse cx="239.762" cy="57.986" rx="1.99704" ry="1.99719" fill="#6EA8FF"/>
<ellipse cx="226.781" cy="57.986" rx="2.99557" ry="2.99579" fill="#6EA8FF"/>
<path d="M232.772 61.4818C234.703 61.4818 236.268 59.9167 236.268 57.986C236.268 56.0554 234.703 54.4902 232.772 54.4902C230.842 54.4902 229.277 56.0554 229.277 57.986C229.277 59.9167 230.842 61.4818 232.772 61.4818Z" fill="#6EA8FF" stroke="white"/>
<path d="M128.926 167.832H146.9" stroke="#6EA8FF" stroke-width="3" stroke-linecap="round"/>
<path d="M169.866 167.832H187.839" stroke="#6EA8FF" stroke-width="3" stroke-linecap="round"/>
<path d="M219.791 167.832H237.765" stroke="#6EA8FF" stroke-width="3" stroke-linecap="round"/>
</g>
<rect x="70" y="210" width="112" height="36" rx="4" fill="#1B67FF"/>
<path d="M106 223.75V234.43C106 234.745 105.745 235 105.43 235H94.57C94.2552 235 94 234.745 94 234.43V220.57C94 220.255 94.2552 220 94.57 220H101.846M106 223.75H101.846V220M106 223.75L101.846 220" stroke="white" stroke-width="1.7"/>
<path d="M121.64 226.308V227.208H126.572V226.308H121.64ZM116.612 231.996V232.896H127.388V231.996H116.612ZM121.124 222.6V232.476H122.072V222.6H121.124ZM131.18 222.468C130.508 224.292 129.392 226.092 128.204 227.256C128.372 227.46 128.624 227.94 128.708 228.144C130.016 226.8 131.24 224.772 132.032 222.732L131.18 222.468ZM129.908 225.564V233.448H130.784V224.712L130.772 224.7L129.908 225.564ZM133.676 228.372V229.212H138.128V228.372H133.676ZM137.84 228.372V228.468C137.204 229.248 135.956 230.652 134.936 231.708L135.668 232.164C136.712 231.072 137.936 229.704 138.788 228.708L138.152 228.312L138.008 228.372H137.84ZM134.876 222.492C134.372 224.58 133.532 227.508 132.92 229.212H133.892C134.42 227.592 135.224 224.724 135.752 222.612L134.876 222.492ZM132.176 223.824V224.652H138.884V223.824H132.176ZM131.48 226.092V226.932H139.436V226.092H131.48ZM133.616 231C134.756 231.708 136.112 232.776 136.76 233.472L137.432 232.8C136.76 232.128 135.428 231.144 134.264 230.46L133.616 231ZM148.688 224.916C147.344 229.032 144.74 231.384 140.456 232.608C140.648 232.824 140.936 233.256 141.032 233.484C145.4 232.068 148.124 229.596 149.636 225.192L148.688 224.916ZM143.24 224.976L142.352 225.252C143.828 229.452 146.468 232.308 150.92 233.472C151.064 233.208 151.352 232.8 151.568 232.584C147.236 231.576 144.536 228.816 143.24 224.976ZM140.6 224.46V225.348H151.448V224.46H140.6ZM145.52 222.42V225H146.444V222.42H145.52ZM159.248 222.576V233.46H160.148V222.576H159.248ZM157.172 223.032C156.896 224.592 156.392 226.14 155.696 227.148C155.924 227.244 156.296 227.46 156.476 227.592C157.16 226.524 157.712 224.88 158.036 223.2L157.172 223.032ZM157.292 224.88L157.064 225.768H162.896V224.88H157.292ZM155.792 228.408V229.296H163.424V228.408H155.792ZM155.204 222.468C154.568 224.292 153.5 226.092 152.372 227.256C152.54 227.472 152.804 227.94 152.888 228.144C154.136 226.788 155.3 224.76 156.056 222.732L155.204 222.468ZM153.992 225.564V233.448H154.856V224.724L154.844 224.712L153.992 225.564Z" fill="white"/>
<path d="M221.776 221.566V235.434C221.776 235.747 222.03 236 222.342 236H235.586C235.88 236 236.125 235.775 236.15 235.483L237.154 223.879C237.183 223.548 236.922 223.264 236.59 223.264H229.079L227.595 221.232C227.488 221.086 227.318 221 227.138 221H222.342C222.03 221 221.776 221.253 221.776 221.566Z" fill="white" stroke="#0068FF" stroke-width="1.5"/>
<path d="M224.946 227.023L221.796 235.231C221.654 235.602 221.927 236 222.325 236H235.69C235.939 236 236.158 235.838 236.231 235.601L238.774 227.394C238.887 227.029 238.614 226.66 238.233 226.66H225.475C225.24 226.66 225.03 226.805 224.946 227.023Z" fill="white" stroke="#0068FF" stroke-width="1.5"/>
<path d="M251.64 226.308V227.208H256.572V226.308H251.64ZM246.612 231.996V232.896H257.388V231.996H246.612ZM251.124 222.6V232.476H252.072V222.6H251.124ZM261.18 222.468C260.508 224.292 259.392 226.092 258.204 227.256C258.372 227.46 258.624 227.94 258.708 228.144C260.016 226.8 261.24 224.772 262.032 222.732L261.18 222.468ZM259.908 225.564V233.448H260.784V224.712L260.772 224.7L259.908 225.564ZM263.676 228.372V229.212H268.128V228.372H263.676ZM267.84 228.372V228.468C267.204 229.248 265.956 230.652 264.936 231.708L265.668 232.164C266.712 231.072 267.936 229.704 268.788 228.708L268.152 228.312L268.008 228.372H267.84ZM264.876 222.492C264.372 224.58 263.532 227.508 262.92 229.212H263.892C264.42 227.592 265.224 224.724 265.752 222.612L264.876 222.492ZM262.176 223.824V224.652H268.884V223.824H262.176ZM261.48 226.092V226.932H269.436V226.092H261.48ZM263.616 231C264.756 231.708 266.112 232.776 266.76 233.472L267.432 232.8C266.76 232.128 265.428 231.144 264.264 230.46L263.616 231ZM278.688 224.916C277.344 229.032 274.74 231.384 270.456 232.608C270.648 232.824 270.936 233.256 271.032 233.484C275.4 232.068 278.124 229.596 279.636 225.192L278.688 224.916ZM273.24 224.976L272.352 225.252C273.828 229.452 276.468 232.308 280.92 233.472C281.064 233.208 281.352 232.8 281.568 232.584C277.236 231.576 274.536 228.816 273.24 224.976ZM270.6 224.46V225.348H281.448V224.46H270.6ZM275.52 222.42V225H276.444V222.42H275.52ZM289.248 222.576V233.46H290.148V222.576H289.248ZM287.172 223.032C286.896 224.592 286.392 226.14 285.696 227.148C285.924 227.244 286.296 227.46 286.476 227.592C287.16 226.524 287.712 224.88 288.036 223.2L287.172 223.032ZM287.292 224.88L287.064 225.768H292.896V224.88H287.292ZM285.792 228.408V229.296H293.424V228.408H285.792ZM285.204 222.468C284.568 224.292 283.5 226.092 282.372 227.256C282.54 227.472 282.804 227.94 282.888 228.144C284.136 226.788 285.3 224.76 286.056 222.732L285.204 222.468ZM283.992 225.564V233.448H284.856V224.724L284.844 224.712L283.992 225.564ZM295.08 224.22V225.108H304.884V224.22H295.08ZM294.696 228.108V229.02H305.304V228.108H294.696ZM296.136 225.624C296.568 226.344 296.976 227.328 297.108 227.94L297.972 227.676C297.828 227.064 297.384 226.116 296.94 225.408L296.136 225.624ZM302.832 225.36C302.532 226.08 301.98 227.1 301.548 227.736L302.268 227.976C302.724 227.376 303.288 226.44 303.732 225.624L302.832 225.36ZM299.568 222.444C299.556 227.976 299.748 231.252 294.54 232.68C294.756 232.872 295.008 233.232 295.116 233.46C300.576 231.888 300.504 228.216 300.528 222.444H299.568ZM300.54 228.3L299.7 228.504C300.588 231 302.244 232.692 304.848 233.4C304.98 233.16 305.232 232.788 305.448 232.596C302.952 232.02 301.296 230.472 300.54 228.3Z" fill="#1B67FF"/>
<rect x="206.5" y="210.5" width="111" height="35" rx="3.5" stroke="#1B67FF"/>
<rect x="123" y="53" width="15" height="15" rx="7.5" fill="#6EA8FF"/>
<rect x="94" y="75" width="15" height="15" rx="7.5" fill="#6EA8FF"/>
<path d="M77.064 277.344L76.236 277.644C77.736 280.656 80.532 282.384 84.54 282.996C84.672 282.744 84.912 282.348 85.116 282.144C81.18 281.616 78.372 280.008 77.064 277.344ZM75.048 276.504V277.38H82.872V276.504H75.048ZM74.496 273.756V274.656H84.624V273.756H74.496ZM79.092 271.932V276.912H80.016V271.932H79.092ZM82.584 276.504V276.684C81.336 279.972 77.952 281.496 74.052 282.108C74.22 282.312 74.46 282.732 74.544 282.96C78.528 282.24 82.092 280.536 83.58 276.84L82.968 276.468L82.788 276.504H82.584ZM90.54 273.48V274.308H96.528V273.48H90.54ZM90.06 277.992V278.832H97.02V277.992H90.06ZM89.916 275.832V276.66H97.104V275.832H89.916ZM93.096 271.98V276.264H93.948V271.98H93.096ZM94.68 276.48V281.868C94.68 282.036 94.632 282.084 94.44 282.096C94.26 282.108 93.636 282.108 92.964 282.084C93.072 282.336 93.192 282.696 93.228 282.948C94.128 282.948 94.716 282.948 95.064 282.804C95.424 282.672 95.544 282.42 95.544 281.88V276.48H94.68ZM90.948 279.564C91.476 280.212 92.052 281.112 92.268 281.7L93.024 281.232C92.772 280.656 92.172 279.792 91.644 279.156L90.948 279.564ZM85.908 278.304L86.148 279.18C87.168 278.844 88.512 278.412 89.772 277.992L89.652 277.164C88.272 277.608 86.856 278.04 85.908 278.304ZM86.076 274.344V275.184H89.736V274.344H86.076ZM87.624 271.932V281.88C87.624 282.048 87.564 282.096 87.42 282.096C87.276 282.108 86.82 282.108 86.292 282.084C86.412 282.336 86.52 282.708 86.556 282.924C87.312 282.936 87.78 282.9 88.056 282.768C88.356 282.624 88.476 282.372 88.476 281.88V271.932H87.624ZM106.272 274.416C104.928 278.532 102.324 280.884 98.04 282.108C98.232 282.324 98.52 282.756 98.616 282.984C102.984 281.568 105.708 279.096 107.22 274.692L106.272 274.416ZM100.824 274.476L99.936 274.752C101.412 278.952 104.052 281.808 108.504 282.972C108.648 282.708 108.936 282.3 109.152 282.084C104.82 281.076 102.12 278.316 100.824 274.476ZM98.184 273.96V274.848H109.032V273.96H98.184ZM103.104 271.92V274.5H104.028V271.92H103.104ZM116.832 272.076V282.96H117.732V272.076H116.832ZM114.756 272.532C114.48 274.092 113.976 275.64 113.28 276.648C113.508 276.744 113.88 276.96 114.06 277.092C114.744 276.024 115.296 274.38 115.62 272.7L114.756 272.532ZM114.876 274.38L114.648 275.268H120.48V274.38H114.876ZM113.376 277.908V278.796H121.008V277.908H113.376ZM112.788 271.968C112.152 273.792 111.084 275.592 109.956 276.756C110.124 276.972 110.388 277.44 110.472 277.644C111.72 276.288 112.884 274.26 113.64 272.232L112.788 271.968ZM111.576 275.064V282.948H112.44V274.224L112.428 274.212L111.576 275.064ZM122.46 274.248V275.076H132.792V274.248H122.46ZM122.412 279.012V279.864H132.852V279.012H122.412ZM130.524 272.172C130.212 272.724 129.636 273.528 129.18 274.02L129.936 274.308C130.404 273.84 130.992 273.144 131.484 272.484L130.524 272.172ZM127.104 271.932V277.452H128.004V271.932H127.104ZM123.768 272.616C124.284 273.132 124.836 273.852 125.076 274.332L125.88 273.924C125.64 273.444 125.064 272.748 124.536 272.256L123.768 272.616ZM128.772 278.004C129.492 278.304 130.404 278.748 130.848 279.072L131.412 278.556C130.92 278.244 129.996 277.824 129.3 277.548L128.772 278.004ZM127.152 277.716C126.888 280.176 126.228 281.532 122.136 282.144C122.304 282.336 122.52 282.732 122.604 282.972C126.948 282.24 127.776 280.584 128.1 277.716H127.152ZM126.768 274.584C125.868 275.796 124.032 276.828 122.208 277.26C122.412 277.452 122.676 277.788 122.808 278.028C124.656 277.488 126.504 276.324 127.512 274.896L126.768 274.584ZM128.316 274.56L127.584 274.848C128.58 276.3 130.44 277.404 132.396 277.896C132.516 277.656 132.768 277.308 132.96 277.14C131.04 276.744 129.216 275.784 128.316 274.56ZM128.148 279.288L127.32 279.468C128.136 281.568 129.792 282.6 132.576 282.96C132.684 282.696 132.936 282.3 133.14 282.096C130.476 281.868 128.832 281.004 128.148 279.288ZM134.784 272.412V273.216H140.196V272.412H134.784ZM134.388 274.872V275.676H140.46V274.872H134.388ZM134.148 281.712V282.552H145.008V281.712H134.148ZM135.396 279.36V280.176H143.748V279.36H135.396ZM138.24 272.748V278.244H139.08V272.748H138.24ZM139.188 278.016V282.288H140.1V278.016H139.188ZM141.204 272.616V276.636H142.032V272.616H141.204ZM143.436 272.004V277.356C143.436 277.524 143.388 277.572 143.208 277.572C143.016 277.596 142.428 277.596 141.732 277.572C141.864 277.812 141.996 278.148 142.032 278.388C142.896 278.388 143.472 278.376 143.832 278.244C144.192 278.1 144.3 277.872 144.3 277.368V272.004H143.436ZM135.912 272.76V274.776C135.912 275.82 135.72 277.044 134.28 277.92C134.448 278.052 134.76 278.376 134.88 278.556C136.44 277.584 136.752 276.048 136.752 274.8V272.76H135.912ZM148.968 271.86C148.296 273.576 147.192 275.244 145.944 276.288C146.184 276.432 146.568 276.756 146.748 276.924C147.972 275.772 149.148 273.996 149.904 272.124L148.968 271.86ZM148.824 273.3L148.392 274.152H155.592V273.3H148.824ZM155.304 273.3V273.48C155.196 277.404 155.076 278.784 154.8 279.096C154.704 279.228 154.572 279.264 154.38 279.264C154.152 279.264 153.576 279.252 152.964 279.192C153.108 279.432 153.204 279.792 153.216 280.056C153.864 280.08 154.464 280.092 154.8 280.056C155.16 280.02 155.4 279.924 155.616 279.648C155.964 279.204 156.084 277.776 156.204 273.732C156.204 273.6 156.204 273.3 156.204 273.3H155.304ZM148.188 278.292V279.096H152.82V275.436H147.936V276.24H151.92V278.292H148.188ZM147.756 278.292V281.376C147.756 282.564 148.32 282.828 150.24 282.828C150.66 282.828 154.284 282.828 154.728 282.828C156.432 282.828 156.78 282.408 156.96 280.68C156.708 280.632 156.324 280.488 156.096 280.356C155.988 281.736 155.808 281.976 154.716 281.976C153.912 281.976 150.804 281.976 150.192 281.976C148.896 281.976 148.656 281.868 148.656 281.376V278.292H147.756ZM167.952 272.004C166.644 272.448 164.328 272.82 162.348 273.036C162.444 273.24 162.564 273.564 162.6 273.78C164.616 273.588 167.004 273.228 168.564 272.724L167.952 272.004ZM162.18 275.556V276.408H169.104V275.556H162.18ZM162.588 278.484V282.96H163.452V279.312H167.556V282.912H168.456V278.484H162.588ZM163.14 281.652V282.48H167.916V281.652H163.14ZM165.06 272.988V278.964H165.936V272.988H165.06ZM157.98 278.28L158.232 279.144C159.312 278.832 160.716 278.412 162.036 278.004L161.928 277.176C160.488 277.596 158.988 278.016 157.98 278.28ZM158.124 274.344V275.196H161.892V274.344H158.124ZM159.636 271.932V281.868C159.636 282.048 159.576 282.096 159.42 282.108C159.264 282.108 158.748 282.108 158.196 282.096C158.304 282.336 158.436 282.708 158.472 282.936C159.276 282.936 159.768 282.912 160.068 282.78C160.38 282.636 160.5 282.384 160.5 281.868V271.932H159.636ZM170.58 272.448V282.972H171.456V273.276H179.676V282.972H180.576V272.448H170.58ZM171.096 281.652V282.456H180.204V281.652H171.096ZM174.072 278.664C175.044 278.868 176.268 279.288 176.928 279.612L177.312 279.012C176.64 278.7 175.416 278.304 174.456 278.112L174.072 278.664ZM174.552 273.516C173.94 274.488 172.908 275.424 171.888 276.036C172.068 276.168 172.38 276.432 172.512 276.576C173.52 275.904 174.612 274.872 175.296 273.768L174.552 273.516ZM177.756 274.464V274.596C176.724 276.204 174.024 277.392 171.672 277.848C171.828 278.016 172.008 278.376 172.092 278.592C174.528 278.028 177.324 276.72 178.56 274.74L178.056 274.428L177.912 274.464H177.756ZM174.024 275.124L173.352 275.436C174.54 276.876 176.76 277.98 178.956 278.448C179.064 278.232 179.292 277.932 179.46 277.764C177.276 277.368 175.08 276.396 174.024 275.124ZM174.276 274.464L173.796 275.172H178.02V274.464H174.276ZM172.884 280.188C174.54 280.392 176.616 280.872 177.756 281.28L178.164 280.608C176.988 280.212 174.924 279.756 173.304 279.564L172.884 280.188ZM187.236 271.944C186.744 272.88 185.844 274.056 184.608 274.932C184.824 275.04 185.112 275.268 185.268 275.448C186.552 274.452 187.476 273.216 188.112 272.1L187.236 271.944ZM187.296 272.7L186.744 273.396H190.2V272.7H187.296ZM186.444 274.956H191.772V276.312H186.444V274.956ZM185.616 274.284V276.972H192.648V274.284H185.616ZM188.652 274.56V276.6H189.468V274.56H188.652ZM188.7 276.384C187.824 277.176 186.252 277.872 184.884 278.28C185.052 278.436 185.292 278.748 185.412 278.904C186.78 278.412 188.424 277.584 189.408 276.672L188.7 276.384ZM187.44 277.668C189.42 279.156 189.48 281.496 188.76 282.012C188.544 282.192 188.328 282.216 188.028 282.216C187.788 282.216 187.428 282.204 187.044 282.168C187.188 282.396 187.26 282.732 187.26 282.948C187.608 282.972 187.944 282.972 188.196 282.972C188.676 282.96 189 282.888 189.348 282.6C190.38 281.832 190.32 278.94 188.028 277.284L187.44 277.668ZM188.508 278.148C187.752 278.844 186.18 279.648 184.98 279.984C185.16 280.152 185.352 280.416 185.448 280.608C186.672 280.152 188.232 279.276 189.06 278.52L188.508 278.148ZM189.132 279.432C188.22 280.428 186.288 281.508 184.764 281.988C184.944 282.156 185.148 282.444 185.256 282.66C186.816 282.072 188.724 280.908 189.732 279.864L189.132 279.432ZM192.36 277.344C191.868 277.836 190.992 278.532 190.368 278.916L190.896 279.408C191.532 279.024 192.372 278.424 192.996 277.872L192.36 277.344ZM190.032 276.516L189.288 276.66C189.84 279.204 190.908 281.376 192.588 282.444C192.72 282.216 192.996 281.904 193.188 281.736C191.592 280.824 190.536 278.784 190.032 276.516ZM189.912 272.7V272.856C189.696 273.324 189.264 273.972 188.88 274.368C189.036 274.488 189.276 274.74 189.396 274.896C189.864 274.428 190.44 273.696 190.812 273.024L190.26 272.64L190.104 272.7H189.912ZM184.368 271.992C183.792 273.84 182.844 275.688 181.788 276.888C181.944 277.116 182.184 277.596 182.268 277.812C183.456 276.408 184.524 274.296 185.208 272.22L184.368 271.992ZM183.408 274.932V282.96H184.26V274.128L184.236 274.104L183.408 274.932ZM199.584 275.484C200.064 275.484 200.484 275.124 200.484 274.584C200.484 274.032 200.064 273.672 199.584 273.672C199.092 273.672 198.672 274.032 198.672 274.584C198.672 275.124 199.092 275.484 199.584 275.484ZM199.584 281.352C200.064 281.352 200.484 281.004 200.484 280.452C200.484 279.9 200.064 279.552 199.584 279.552C199.092 279.552 198.672 279.9 198.672 280.452C198.672 281.004 199.092 281.352 199.584 281.352ZM206.486 274.559V273.598H207.324V274.559H206.486ZM207.266 282.639C207.266 282.881 207.219 283.107 207.125 283.318C207.035 283.533 206.91 283.721 206.75 283.881C206.59 284.041 206.402 284.168 206.188 284.262C205.973 284.355 205.744 284.402 205.502 284.402V283.717C205.646 283.717 205.781 283.689 205.906 283.635C206.035 283.58 206.146 283.506 206.24 283.412C206.334 283.318 206.408 283.207 206.463 283.078C206.518 282.953 206.545 282.818 206.545 282.674V276H207.266V282.639ZM212.961 280.354C212.961 280.596 212.914 280.824 212.82 281.039C212.73 281.254 212.605 281.441 212.445 281.602C212.285 281.762 212.098 281.889 211.883 281.982C211.668 282.072 211.439 282.117 211.197 282.117H211.016C210.746 282.117 210.496 282.062 210.266 281.953C210.035 281.844 209.838 281.691 209.674 281.496V284.402H208.953V276H209.193L209.586 276.609C209.75 276.387 209.955 276.211 210.201 276.082C210.451 275.949 210.723 275.883 211.016 275.883H211.197C211.439 275.883 211.668 275.93 211.883 276.023C212.098 276.113 212.285 276.238 212.445 276.398C212.605 276.559 212.73 276.746 212.82 276.961C212.914 277.176 212.961 277.404 212.961 277.646V280.354ZM212.24 277.605C212.24 277.461 212.213 277.326 212.158 277.201C212.104 277.072 212.029 276.961 211.936 276.867C211.842 276.773 211.73 276.699 211.602 276.645C211.477 276.59 211.342 276.562 211.197 276.562H210.717C210.572 276.562 210.436 276.59 210.307 276.645C210.182 276.699 210.072 276.773 209.979 276.867C209.885 276.961 209.811 277.072 209.756 277.201C209.701 277.326 209.674 277.461 209.674 277.605V280.395C209.674 280.539 209.701 280.676 209.756 280.805C209.811 280.93 209.885 281.039 209.979 281.133C210.072 281.227 210.182 281.301 210.307 281.355C210.436 281.41 210.572 281.438 210.717 281.438H211.197C211.342 281.438 211.477 281.41 211.602 281.355C211.73 281.301 211.842 281.227 211.936 281.133C212.029 281.039 212.104 280.93 212.158 280.805C212.213 280.676 212.24 280.539 212.24 280.395V277.605ZM218.469 282.756C218.469 282.998 218.422 283.221 218.328 283.424C218.238 283.627 218.113 283.801 217.953 283.945C217.793 284.09 217.605 284.201 217.391 284.279C217.176 284.361 216.947 284.402 216.705 284.402H216.406C216.164 284.402 215.936 284.361 215.721 284.279C215.506 284.201 215.318 284.09 215.158 283.945C214.998 283.801 214.871 283.627 214.777 283.424C214.688 283.221 214.643 282.998 214.643 282.756V282.732C214.643 282.498 214.686 282.283 214.771 282.088C214.857 281.893 214.975 281.723 215.123 281.578C214.936 281.465 214.785 281.312 214.672 281.121C214.562 280.926 214.508 280.711 214.508 280.477C214.508 280.266 214.553 280.07 214.643 279.891C214.732 279.707 214.855 279.559 215.012 279.445C214.824 279.281 214.676 279.084 214.566 278.854C214.457 278.623 214.402 278.371 214.402 278.098V277.646C214.402 277.404 214.447 277.176 214.537 276.961C214.631 276.746 214.758 276.559 214.918 276.398C215.078 276.238 215.266 276.113 215.48 276.023C215.695 275.93 215.924 275.883 216.166 275.883H216.465C216.758 275.883 217.027 275.949 217.273 276.082C217.523 276.211 217.73 276.387 217.895 276.609L218.287 276H218.527V278.098C218.527 278.34 218.48 278.568 218.387 278.783C218.297 278.998 218.172 279.186 218.012 279.346C217.852 279.506 217.664 279.633 217.449 279.727C217.234 279.816 217.006 279.861 216.764 279.861H215.721C215.639 279.861 215.561 279.879 215.486 279.914C215.412 279.945 215.346 279.988 215.287 280.043C215.232 280.098 215.189 280.164 215.158 280.242C215.127 280.316 215.111 280.395 215.111 280.477C215.111 280.559 215.127 280.637 215.158 280.711C215.189 280.785 215.232 280.852 215.287 280.91C215.346 280.965 215.412 281.008 215.486 281.039C215.561 281.07 215.639 281.086 215.721 281.086H216.705C216.947 281.086 217.176 281.127 217.391 281.209C217.605 281.287 217.793 281.398 217.953 281.543C218.113 281.688 218.238 281.861 218.328 282.064C218.422 282.268 218.469 282.49 218.469 282.732V282.756ZM217.812 277.605C217.812 277.461 217.785 277.326 217.73 277.201C217.676 277.072 217.6 276.961 217.502 276.867C217.408 276.773 217.297 276.699 217.168 276.645C217.043 276.59 216.908 276.562 216.764 276.562H216.166C216.021 276.562 215.885 276.59 215.756 276.645C215.631 276.699 215.521 276.773 215.428 276.867C215.334 276.961 215.26 277.072 215.205 277.201C215.15 277.326 215.123 277.461 215.123 277.605V278.139C215.123 278.283 215.15 278.42 215.205 278.549C215.26 278.674 215.334 278.783 215.428 278.877C215.521 278.971 215.631 279.045 215.756 279.1C215.885 279.154 216.021 279.182 216.166 279.182H216.764C216.908 279.182 217.043 279.154 217.168 279.1C217.297 279.045 217.408 278.971 217.502 278.877C217.6 278.783 217.676 278.674 217.73 278.549C217.785 278.42 217.812 278.283 217.812 278.139V277.605ZM217.783 282.697C217.783 282.553 217.756 282.422 217.701 282.305C217.646 282.191 217.572 282.096 217.479 282.018C217.385 281.939 217.273 281.879 217.145 281.836C217.02 281.793 216.885 281.771 216.74 281.771H216.371C216.227 281.771 216.09 281.793 215.961 281.836C215.836 281.879 215.727 281.939 215.633 282.018C215.539 282.096 215.465 282.191 215.41 282.305C215.355 282.422 215.328 282.553 215.328 282.697V282.791C215.328 282.936 215.355 283.064 215.41 283.178C215.465 283.291 215.539 283.387 215.633 283.465C215.727 283.547 215.836 283.609 215.961 283.652C216.09 283.695 216.227 283.717 216.371 283.717H216.74C216.885 283.717 217.02 283.695 217.145 283.652C217.273 283.609 217.385 283.547 217.479 283.465C217.572 283.387 217.646 283.291 217.701 283.178C217.756 283.064 217.783 282.936 217.783 282.791V282.697ZM222.407 282.672L223.223 281.976C222.467 281.1 221.387 280.02 220.523 279.324L219.743 280.008C220.595 280.704 221.627 281.724 222.407 282.672ZM235.859 280.354C235.859 280.596 235.812 280.824 235.719 281.039C235.629 281.254 235.504 281.441 235.344 281.602C235.184 281.762 234.996 281.889 234.781 281.982C234.566 282.072 234.338 282.117 234.096 282.117H233.914C233.645 282.117 233.395 282.062 233.164 281.953C232.934 281.844 232.736 281.691 232.572 281.496V284.402H231.852V276H232.092L232.484 276.609C232.648 276.387 232.854 276.211 233.1 276.082C233.35 275.949 233.621 275.883 233.914 275.883H234.096C234.338 275.883 234.566 275.93 234.781 276.023C234.996 276.113 235.184 276.238 235.344 276.398C235.504 276.559 235.629 276.746 235.719 276.961C235.812 277.176 235.859 277.404 235.859 277.646V280.354ZM235.139 277.605C235.139 277.461 235.111 277.326 235.057 277.201C235.002 277.072 234.928 276.961 234.834 276.867C234.74 276.773 234.629 276.699 234.5 276.645C234.375 276.59 234.24 276.562 234.096 276.562H233.615C233.471 276.562 233.334 276.59 233.205 276.645C233.08 276.699 232.971 276.773 232.877 276.867C232.783 276.961 232.709 277.072 232.654 277.201C232.6 277.326 232.572 277.461 232.572 277.605V280.395C232.572 280.539 232.6 280.676 232.654 280.805C232.709 280.93 232.783 281.039 232.877 281.133C232.971 281.227 233.08 281.301 233.205 281.355C233.334 281.41 233.471 281.438 233.615 281.438H234.096C234.24 281.438 234.375 281.41 234.5 281.355C234.629 281.301 234.74 281.227 234.834 281.133C234.928 281.039 235.002 280.93 235.057 280.805C235.111 280.676 235.139 280.539 235.139 280.395V277.605ZM240.588 282V277.605C240.588 277.461 240.561 277.326 240.506 277.201C240.451 277.072 240.377 276.961 240.283 276.867C240.189 276.773 240.078 276.699 239.949 276.645C239.824 276.59 239.689 276.562 239.545 276.562H239.064C238.92 276.562 238.783 276.59 238.654 276.645C238.529 276.699 238.42 276.773 238.326 276.867C238.232 276.961 238.158 277.072 238.104 277.201C238.049 277.326 238.021 277.461 238.021 277.605V282H237.301V276H237.541L237.934 276.609C238.098 276.387 238.303 276.211 238.549 276.082C238.799 275.949 239.07 275.883 239.363 275.883H239.545C239.787 275.883 240.016 275.93 240.23 276.023C240.445 276.113 240.633 276.238 240.793 276.398C240.953 276.559 241.078 276.746 241.168 276.961C241.262 277.176 241.309 277.404 241.309 277.646V282H240.588ZM246.816 282.756C246.816 282.998 246.77 283.221 246.676 283.424C246.586 283.627 246.461 283.801 246.301 283.945C246.141 284.09 245.953 284.201 245.738 284.279C245.523 284.361 245.295 284.402 245.053 284.402H244.754C244.512 284.402 244.283 284.361 244.068 284.279C243.854 284.201 243.666 284.09 243.506 283.945C243.346 283.801 243.219 283.627 243.125 283.424C243.035 283.221 242.99 282.998 242.99 282.756V282.732C242.99 282.498 243.033 282.283 243.119 282.088C243.205 281.893 243.322 281.723 243.471 281.578C243.283 281.465 243.133 281.312 243.02 281.121C242.91 280.926 242.855 280.711 242.855 280.477C242.855 280.266 242.9 280.07 242.99 279.891C243.08 279.707 243.203 279.559 243.359 279.445C243.172 279.281 243.023 279.084 242.914 278.854C242.805 278.623 242.75 278.371 242.75 278.098V277.646C242.75 277.404 242.795 277.176 242.885 276.961C242.979 276.746 243.105 276.559 243.266 276.398C243.426 276.238 243.613 276.113 243.828 276.023C244.043 275.93 244.271 275.883 244.514 275.883H244.812C245.105 275.883 245.375 275.949 245.621 276.082C245.871 276.211 246.078 276.387 246.242 276.609L246.635 276H246.875V278.098C246.875 278.34 246.828 278.568 246.734 278.783C246.645 278.998 246.52 279.186 246.359 279.346C246.199 279.506 246.012 279.633 245.797 279.727C245.582 279.816 245.354 279.861 245.111 279.861H244.068C243.986 279.861 243.908 279.879 243.834 279.914C243.76 279.945 243.693 279.988 243.635 280.043C243.58 280.098 243.537 280.164 243.506 280.242C243.475 280.316 243.459 280.395 243.459 280.477C243.459 280.559 243.475 280.637 243.506 280.711C243.537 280.785 243.58 280.852 243.635 280.91C243.693 280.965 243.76 281.008 243.834 281.039C243.908 281.07 243.986 281.086 244.068 281.086H245.053C245.295 281.086 245.523 281.127 245.738 281.209C245.953 281.287 246.141 281.398 246.301 281.543C246.461 281.688 246.586 281.861 246.676 282.064C246.77 282.268 246.816 282.49 246.816 282.732V282.756ZM246.16 277.605C246.16 277.461 246.133 277.326 246.078 277.201C246.023 277.072 245.947 276.961 245.85 276.867C245.756 276.773 245.645 276.699 245.516 276.645C245.391 276.59 245.256 276.562 245.111 276.562H244.514C244.369 276.562 244.232 276.59 244.104 276.645C243.979 276.699 243.869 276.773 243.775 276.867C243.682 276.961 243.607 277.072 243.553 277.201C243.498 277.326 243.471 277.461 243.471 277.605V278.139C243.471 278.283 243.498 278.42 243.553 278.549C243.607 278.674 243.682 278.783 243.775 278.877C243.869 278.971 243.979 279.045 244.104 279.1C244.232 279.154 244.369 279.182 244.514 279.182H245.111C245.256 279.182 245.391 279.154 245.516 279.1C245.645 279.045 245.756 278.971 245.85 278.877C245.947 278.783 246.023 278.674 246.078 278.549C246.133 278.42 246.16 278.283 246.16 278.139V277.605ZM246.131 282.697C246.131 282.553 246.104 282.422 246.049 282.305C245.994 282.191 245.92 282.096 245.826 282.018C245.732 281.939 245.621 281.879 245.492 281.836C245.367 281.793 245.232 281.771 245.088 281.771H244.719C244.574 281.771 244.438 281.793 244.309 281.836C244.184 281.879 244.074 281.939 243.98 282.018C243.887 282.096 243.812 282.191 243.758 282.305C243.703 282.422 243.676 282.553 243.676 282.697V282.791C243.676 282.936 243.703 283.064 243.758 283.178C243.812 283.291 243.887 283.387 243.98 283.465C244.074 283.547 244.184 283.609 244.309 283.652C244.438 283.695 244.574 283.717 244.719 283.717H245.088C245.232 283.717 245.367 283.695 245.492 283.652C245.621 283.609 245.732 283.547 245.826 283.465C245.92 283.387 245.994 283.291 246.049 283.178C246.104 283.064 246.131 282.936 246.131 282.791V282.697ZM250.755 282.672L251.571 281.976C250.815 281.1 249.735 280.02 248.871 279.324L248.091 280.008C248.943 280.704 249.975 281.724 250.755 282.672ZM264.207 280.354C264.207 280.596 264.16 280.824 264.066 281.039C263.977 281.254 263.852 281.441 263.691 281.602C263.531 281.762 263.344 281.889 263.129 281.982C262.914 282.072 262.686 282.117 262.443 282.117H261.963C261.721 282.117 261.492 282.072 261.277 281.982C261.062 281.889 260.875 281.762 260.715 281.602C260.555 281.441 260.428 281.254 260.334 281.039C260.244 280.824 260.199 280.596 260.199 280.354V273.598H260.92V276.504C261.084 276.309 261.281 276.156 261.512 276.047C261.742 275.938 261.992 275.883 262.262 275.883H262.443C262.686 275.883 262.914 275.93 263.129 276.023C263.344 276.113 263.531 276.238 263.691 276.398C263.852 276.559 263.977 276.746 264.066 276.961C264.16 277.176 264.207 277.404 264.207 277.646V280.354ZM263.486 277.605C263.486 277.461 263.459 277.326 263.404 277.201C263.35 277.072 263.275 276.961 263.182 276.867C263.088 276.773 262.977 276.699 262.848 276.645C262.723 276.59 262.588 276.562 262.443 276.562H261.963C261.818 276.562 261.682 276.59 261.553 276.645C261.428 276.699 261.318 276.773 261.225 276.867C261.131 276.961 261.057 277.072 261.002 277.201C260.947 277.326 260.92 277.461 260.92 277.605V280.395C260.92 280.539 260.947 280.676 261.002 280.805C261.057 280.93 261.131 281.039 261.225 281.133C261.318 281.227 261.428 281.301 261.553 281.355C261.682 281.41 261.818 281.438 261.963 281.438H262.443C262.588 281.438 262.723 281.41 262.848 281.355C262.977 281.301 263.088 281.227 263.182 281.133C263.275 281.039 263.35 280.93 263.404 280.805C263.459 280.676 263.486 280.539 263.486 280.395V277.605ZM271.982 282V277.605C271.982 277.461 271.955 277.326 271.9 277.201C271.846 277.072 271.771 276.961 271.678 276.867C271.584 276.773 271.473 276.699 271.344 276.645C271.219 276.59 271.084 276.562 270.939 276.562H270.582C270.438 276.562 270.301 276.59 270.172 276.645C270.047 276.699 269.936 276.773 269.838 276.867C269.744 276.961 269.67 277.072 269.615 277.201C269.561 277.326 269.533 277.461 269.533 277.605V282H268.818V277.605C268.818 277.461 268.791 277.326 268.736 277.201C268.682 277.072 268.605 276.961 268.508 276.867C268.414 276.773 268.303 276.699 268.174 276.645C268.049 276.59 267.914 276.562 267.77 276.562H267.412C267.268 276.562 267.131 276.59 267.002 276.645C266.877 276.699 266.768 276.773 266.674 276.867C266.58 276.961 266.506 277.072 266.451 277.201C266.396 277.326 266.369 277.461 266.369 277.605V282H265.648V276H265.889L266.281 276.609C266.445 276.387 266.65 276.211 266.896 276.082C267.146 275.949 267.418 275.883 267.711 275.883H267.77C268.109 275.883 268.416 275.967 268.689 276.135C268.963 276.303 269.174 276.525 269.322 276.803C269.396 276.666 269.488 276.541 269.598 276.428C269.707 276.314 269.828 276.219 269.961 276.141C270.094 276.059 270.238 275.996 270.395 275.953C270.551 275.906 270.713 275.883 270.881 275.883H270.939C271.182 275.883 271.41 275.93 271.625 276.023C271.84 276.113 272.027 276.238 272.188 276.398C272.348 276.559 272.473 276.746 272.562 276.961C272.656 277.176 272.703 277.404 272.703 277.646V282H271.982ZM278.152 280.354C278.152 280.596 278.105 280.824 278.012 281.039C277.922 281.254 277.797 281.441 277.637 281.602C277.477 281.762 277.289 281.889 277.074 281.982C276.859 282.072 276.631 282.117 276.389 282.117H276.207C275.938 282.117 275.688 282.062 275.457 281.953C275.227 281.844 275.029 281.691 274.865 281.496V284.402H274.145V276H274.385L274.777 276.609C274.941 276.387 275.146 276.211 275.393 276.082C275.643 275.949 275.914 275.883 276.207 275.883H276.389C276.631 275.883 276.859 275.93 277.074 276.023C277.289 276.113 277.477 276.238 277.637 276.398C277.797 276.559 277.922 276.746 278.012 276.961C278.105 277.176 278.152 277.404 278.152 277.646V280.354ZM277.432 277.605C277.432 277.461 277.404 277.326 277.35 277.201C277.295 277.072 277.221 276.961 277.127 276.867C277.033 276.773 276.922 276.699 276.793 276.645C276.668 276.59 276.533 276.562 276.389 276.562H275.908C275.764 276.562 275.627 276.59 275.498 276.645C275.373 276.699 275.264 276.773 275.17 276.867C275.076 276.961 275.002 277.072 274.947 277.201C274.893 277.326 274.865 277.461 274.865 277.605V280.395C274.865 280.539 274.893 280.676 274.947 280.805C275.002 280.93 275.076 281.039 275.17 281.133C275.264 281.227 275.373 281.301 275.498 281.355C275.627 281.41 275.764 281.438 275.908 281.438H276.389C276.533 281.438 276.668 281.41 276.793 281.355C276.922 281.301 277.033 281.227 277.127 281.133C277.221 281.039 277.295 280.93 277.35 280.805C277.404 280.676 277.432 280.539 277.432 280.395V277.605ZM282.149 282.672L282.965 281.976C282.209 281.1 281.129 280.02 280.265 279.324L279.485 280.008C280.337 280.704 281.369 281.724 282.149 282.672ZM295.66 282.756C295.66 282.998 295.613 283.221 295.52 283.424C295.43 283.627 295.305 283.801 295.145 283.945C294.984 284.09 294.797 284.201 294.582 284.279C294.367 284.361 294.139 284.402 293.896 284.402H293.598C293.355 284.402 293.127 284.361 292.912 284.279C292.697 284.201 292.51 284.09 292.35 283.945C292.189 283.801 292.062 283.627 291.969 283.424C291.879 283.221 291.834 282.998 291.834 282.756V282.732C291.834 282.498 291.877 282.283 291.963 282.088C292.049 281.893 292.166 281.723 292.314 281.578C292.127 281.465 291.977 281.312 291.863 281.121C291.754 280.926 291.699 280.711 291.699 280.477C291.699 280.266 291.744 280.07 291.834 279.891C291.924 279.707 292.047 279.559 292.203 279.445C292.016 279.281 291.867 279.084 291.758 278.854C291.648 278.623 291.594 278.371 291.594 278.098V277.646C291.594 277.404 291.639 277.176 291.729 276.961C291.822 276.746 291.949 276.559 292.109 276.398C292.27 276.238 292.457 276.113 292.672 276.023C292.887 275.93 293.115 275.883 293.357 275.883H293.656C293.949 275.883 294.219 275.949 294.465 276.082C294.715 276.211 294.922 276.387 295.086 276.609L295.479 276H295.719V278.098C295.719 278.34 295.672 278.568 295.578 278.783C295.488 278.998 295.363 279.186 295.203 279.346C295.043 279.506 294.855 279.633 294.641 279.727C294.426 279.816 294.197 279.861 293.955 279.861H292.912C292.83 279.861 292.752 279.879 292.678 279.914C292.604 279.945 292.537 279.988 292.479 280.043C292.424 280.098 292.381 280.164 292.35 280.242C292.318 280.316 292.303 280.395 292.303 280.477C292.303 280.559 292.318 280.637 292.35 280.711C292.381 280.785 292.424 280.852 292.479 280.91C292.537 280.965 292.604 281.008 292.678 281.039C292.752 281.07 292.83 281.086 292.912 281.086H293.896C294.139 281.086 294.367 281.127 294.582 281.209C294.797 281.287 294.984 281.398 295.145 281.543C295.305 281.688 295.43 281.861 295.52 282.064C295.613 282.268 295.66 282.49 295.66 282.732V282.756ZM295.004 277.605C295.004 277.461 294.977 277.326 294.922 277.201C294.867 277.072 294.791 276.961 294.693 276.867C294.6 276.773 294.488 276.699 294.359 276.645C294.234 276.59 294.1 276.562 293.955 276.562H293.357C293.213 276.562 293.076 276.59 292.947 276.645C292.822 276.699 292.713 276.773 292.619 276.867C292.525 276.961 292.451 277.072 292.396 277.201C292.342 277.326 292.314 277.461 292.314 277.605V278.139C292.314 278.283 292.342 278.42 292.396 278.549C292.451 278.674 292.525 278.783 292.619 278.877C292.713 278.971 292.822 279.045 292.947 279.1C293.076 279.154 293.213 279.182 293.357 279.182H293.955C294.1 279.182 294.234 279.154 294.359 279.1C294.488 279.045 294.6 278.971 294.693 278.877C294.791 278.783 294.867 278.674 294.922 278.549C294.977 278.42 295.004 278.283 295.004 278.139V277.605ZM294.975 282.697C294.975 282.553 294.947 282.422 294.893 282.305C294.838 282.191 294.764 282.096 294.67 282.018C294.576 281.939 294.465 281.879 294.336 281.836C294.211 281.793 294.076 281.771 293.932 281.771H293.562C293.418 281.771 293.281 281.793 293.152 281.836C293.027 281.879 292.918 281.939 292.824 282.018C292.73 282.096 292.656 282.191 292.602 282.305C292.547 282.422 292.52 282.553 292.52 282.697V282.791C292.52 282.936 292.547 283.064 292.602 283.178C292.656 283.291 292.73 283.387 292.824 283.465C292.918 283.547 293.027 283.609 293.152 283.652C293.281 283.695 293.418 283.717 293.562 283.717H293.932C294.076 283.717 294.211 283.695 294.336 283.652C294.465 283.609 294.576 283.547 294.67 283.465C294.764 283.387 294.838 283.291 294.893 283.178C294.947 283.064 294.975 282.936 294.975 282.791V282.697ZM297.225 274.559V273.598H298.062V274.559H297.225ZM297.283 282V276H298.004V282H297.283ZM301.754 274.283C301.633 274.283 301.52 274.307 301.414 274.354C301.312 274.396 301.223 274.457 301.145 274.535C301.066 274.613 301.004 274.705 300.957 274.811C300.914 274.916 300.893 275.029 300.893 275.15V276H302.293V276.686H300.893V282H300.172V276.686H299.088V276H300.172V275.186C300.172 274.967 300.213 274.762 300.295 274.57C300.377 274.375 300.49 274.205 300.635 274.061C300.779 273.916 300.947 273.803 301.139 273.721C301.33 273.639 301.535 273.598 301.754 273.598H302.416V274.283H301.754ZM304.744 279.084C303.736 279.084 302.908 279.9 302.908 280.908C302.908 281.916 303.736 282.732 304.744 282.732C305.752 282.732 306.568 281.916 306.568 280.908C306.568 279.9 305.752 279.084 304.744 279.084ZM304.744 282.12C304.072 282.12 303.52 281.58 303.52 280.908C303.52 280.236 304.072 279.696 304.744 279.696C305.416 279.696 305.956 280.236 305.956 280.908C305.956 281.58 305.416 282.12 304.744 282.12Z" fill="black" fill-opacity="0.36"/>
<path d="M115.143 297.464V298.196H122.907V297.464H115.143ZM115.851 300.704V301.388H122.115V300.704H115.851ZM115.311 302.348V303.092H122.643V302.348H115.311ZM118.467 295.016V304.364H119.343V295.016H118.467ZM116.007 295.892V296.612H121.119V299.084H115.923V299.804H122.007V295.892H116.007ZM111.879 295.688V296.492H114.471V295.688H111.879ZM114.147 295.688V295.796C113.703 296.804 112.779 298.748 112.035 300.152L112.851 300.38C113.583 298.952 114.483 297.092 115.035 295.832L114.423 295.64L114.279 295.688H114.147ZM112.971 299.108L112.863 299.912H114.939V299.108H112.971ZM114.567 299.108V299.288C114.267 302.384 113.307 304.34 111.783 305.36C111.987 305.48 112.323 305.804 112.467 305.984C114.027 304.856 115.071 302.708 115.431 299.216L114.915 299.084L114.747 299.108H114.567ZM113.007 300.872L112.287 301.148C113.451 304.916 115.767 305.648 119.235 305.648H122.619C122.679 305.384 122.847 304.976 122.991 304.772C122.355 304.784 119.763 304.784 119.259 304.784C116.211 304.784 113.979 304.184 113.007 300.872ZM128.679 295.808L127.827 295.952C128.739 300.944 130.455 304.436 134.451 306.008C134.583 305.768 134.871 305.408 135.087 305.216C131.223 303.848 129.483 300.44 128.679 295.808ZM129.879 295.484C130.371 296.288 130.875 297.368 131.067 298.028L131.883 297.644C131.679 296.996 131.139 295.952 130.647 295.16L129.879 295.484ZM133.371 295.664C132.687 299.948 131.331 303.5 127.119 305.312C127.287 305.492 127.527 305.828 127.647 306.044C132.051 304.076 133.491 300.368 134.283 295.808L133.371 295.664ZM124.731 295.748C125.283 296.324 125.931 297.104 126.231 297.62L126.915 297.044C126.615 296.564 125.931 295.808 125.379 295.268L124.731 295.748ZM125.631 305.648C125.811 305.42 126.123 305.18 128.235 303.668C128.151 303.5 128.007 303.152 127.947 302.912L125.727 304.436L125.475 304.808L125.631 305.648ZM123.939 298.688V299.552H126.375V298.688H123.939ZM125.631 305.648C125.631 305.288 126.495 304.448 126.495 304.448V298.688H125.631V303.8C125.631 304.412 125.307 304.832 125.103 305.012C125.259 305.144 125.523 305.468 125.631 305.648ZM140.883 297.416V305.948H141.819V297.416H140.883ZM138.039 299.768H144.795V301.052H138.039V299.768ZM138.039 297.764H144.795V299.048H138.039V297.764ZM137.163 296.996V301.82H145.719V296.996H137.163ZM136.023 302.96V303.8H146.763V302.96H136.023ZM138.207 295.34C138.687 295.892 139.227 296.672 139.455 297.164L140.259 296.756C140.019 296.264 139.455 295.52 138.975 294.98L138.207 295.34ZM143.895 294.98C143.583 295.652 143.007 296.588 142.563 297.176L143.331 297.476C143.787 296.924 144.387 296.06 144.867 295.292L143.895 294.98ZM153.339 295.892C154.443 297.464 156.651 299.36 158.607 300.488C158.775 300.224 158.991 299.912 159.219 299.684C157.251 298.676 155.055 296.816 153.747 294.956H152.811C151.863 296.576 149.775 298.604 147.591 299.84C147.795 300.032 148.047 300.356 148.179 300.56C150.315 299.312 152.343 297.404 153.339 295.892ZM152.859 298.892V305.972H153.807V298.892H152.859ZM168.075 297.416C166.731 301.532 164.127 303.884 159.843 305.108C160.035 305.324 160.323 305.756 160.419 305.984C164.787 304.568 167.511 302.096 169.023 297.692L168.075 297.416ZM162.627 297.476L161.739 297.752C163.215 301.952 165.855 304.808 170.307 305.972C170.451 305.708 170.739 305.3 170.955 305.084C166.623 304.076 163.923 301.316 162.627 297.476ZM159.987 296.96V297.848H170.835V296.96H159.987ZM164.907 294.92V297.5H165.831V294.92H164.907ZM178.635 295.076V305.96H179.535V295.076H178.635ZM176.559 295.532C176.283 297.092 175.779 298.64 175.083 299.648C175.311 299.744 175.683 299.96 175.863 300.092C176.547 299.024 177.099 297.38 177.423 295.7L176.559 295.532ZM176.679 297.38L176.451 298.268H182.283V297.38H176.679ZM175.179 300.908V301.796H182.811V300.908H175.179ZM174.591 294.968C173.955 296.792 172.887 298.592 171.759 299.756C171.927 299.972 172.191 300.44 172.275 300.644C173.523 299.288 174.687 297.26 175.443 295.232L174.591 294.968ZM173.379 298.064V305.948H174.243V297.224L174.231 297.212L173.379 298.064ZM184.131 298.376V299.288H194.679V298.376H184.131ZM189.975 298.736L189.075 298.952C189.975 302.18 191.607 304.712 194.199 305.936C194.355 305.684 194.655 305.3 194.883 305.096C192.387 304.064 190.755 301.64 189.975 298.736ZM188.919 294.932C188.895 297.812 188.991 302.984 183.891 305.204C184.143 305.384 184.431 305.708 184.575 305.948C189.819 303.548 189.843 298.076 189.891 294.932H188.919ZM200.943 295.1V304.712C200.943 304.952 200.859 305.036 200.607 305.036C200.367 305.048 199.503 305.06 198.615 305.024C198.771 305.288 198.939 305.708 198.987 305.972C200.127 305.972 200.871 305.948 201.303 305.792C201.735 305.648 201.915 305.384 201.915 304.712V295.1H200.943ZM203.847 298.16C204.867 299.876 205.839 302.132 206.127 303.548L207.087 303.164C206.775 301.712 205.755 299.516 204.711 297.824L203.847 298.16ZM197.799 297.908C197.499 299.528 196.839 301.604 195.771 302.876C196.011 302.972 196.407 303.188 196.623 303.356C197.715 302.012 198.411 299.84 198.807 298.076L197.799 297.908ZM208.215 295.772V296.684H218.547V295.772H208.215ZM214.095 299.264C215.523 300.236 217.323 301.64 218.163 302.564L218.895 301.88C218.007 300.956 216.171 299.6 214.767 298.688L214.095 299.264ZM213.867 296.084C212.751 298.34 210.519 300.644 207.915 301.952C208.095 302.144 208.383 302.504 208.527 302.732C211.239 301.304 213.483 298.928 214.851 296.444L213.867 296.084ZM212.883 298.484V305.948H213.855V297.524L212.883 298.484ZM225.267 295.436V296.204H230.139V295.436H225.267ZM226.995 295.712C226.875 297.512 226.239 298.664 224.859 299.324C225.051 299.444 225.399 299.732 225.543 299.876C226.947 299.072 227.691 297.824 227.859 295.76L226.995 295.712ZM229.683 295.436V295.568C229.587 297.608 229.479 298.352 229.311 298.568C229.227 298.664 229.107 298.676 228.939 298.676C228.759 298.676 228.303 298.676 227.799 298.616C227.919 298.832 228.003 299.168 228.027 299.396C228.555 299.42 229.071 299.432 229.335 299.408C229.647 299.384 229.863 299.3 230.043 299.108C230.307 298.796 230.427 297.956 230.523 295.796C230.535 295.676 230.535 295.436 230.535 295.436H229.683ZM220.251 296.372V297.164H224.895V296.372H220.251ZM220.011 298.652V299.468H225.135V298.652H220.011ZM222.723 301.184V301.976H225.027V301.184H222.723ZM222.171 294.932V299.084H222.999V294.932H222.171ZM222.327 299.168V304.628H223.143V299.168H222.327ZM221.199 301.772L220.527 301.988C221.319 305.012 222.747 305.66 226.023 305.66H230.655C230.715 305.396 230.871 304.976 231.027 304.772C230.271 304.796 226.587 304.796 225.999 304.796C223.191 304.796 221.847 304.28 221.199 301.772ZM220.539 300.332C220.515 302.456 220.407 304.352 219.711 305.552C219.915 305.648 220.287 305.864 220.431 305.984C221.151 304.652 221.307 302.684 221.355 300.38L220.539 300.332ZM226.515 300.824H229.371V303.044H226.515V300.824ZM225.663 300.08V303.8H230.271V300.08H225.663ZM232.323 295.712C232.995 296.336 233.763 297.212 234.111 297.788L234.855 297.248C234.483 296.696 233.691 295.856 233.019 295.256L232.323 295.712ZM234.519 299.42H231.975V300.272H233.643V303.788H234.519V299.42ZM234.063 303.32C233.463 303.32 232.647 303.944 231.819 304.844L232.455 305.684C233.067 304.868 233.643 304.16 234.051 304.16C234.315 304.16 234.699 304.556 235.215 304.88C236.043 305.408 237.051 305.528 238.551 305.528C239.691 305.528 241.827 305.468 242.679 305.42C242.691 305.144 242.835 304.688 242.955 304.436C241.791 304.568 239.979 304.664 238.563 304.664C237.219 304.664 236.199 304.58 235.419 304.088C234.747 303.68 234.471 303.32 234.063 303.32ZM235.371 297.092V297.944H242.595V297.092H235.371ZM240.015 294.968V302.696C240.015 302.912 239.931 302.972 239.691 302.996C239.451 302.996 238.623 302.996 237.735 302.972C237.867 303.236 238.023 303.632 238.059 303.896C239.199 303.896 239.931 303.872 240.339 303.728C240.771 303.584 240.939 303.32 240.939 302.708V294.968H240.015ZM235.947 299.276C236.559 300.032 237.303 301.076 237.627 301.712L238.383 301.244C238.035 300.62 237.279 299.624 236.667 298.892L235.947 299.276ZM246.146 297.201C245.959 297.201 245.783 297.236 245.619 297.307C245.459 297.377 245.318 297.473 245.197 297.594C245.076 297.715 244.98 297.857 244.91 298.021C244.84 298.182 244.805 298.355 244.805 298.543V298.883L244.049 298.76V298.543C244.049 298.258 244.102 297.99 244.207 297.74C244.316 297.49 244.465 297.271 244.652 297.084C244.84 296.896 245.059 296.75 245.309 296.645C245.559 296.535 245.826 296.48 246.111 296.48H246.469C246.754 296.48 247.021 296.531 247.271 296.633C247.525 296.734 247.746 296.881 247.934 297.072C248.121 297.264 248.268 297.494 248.373 297.764C248.482 298.029 248.537 298.33 248.537 298.666C248.537 298.998 248.486 299.332 248.385 299.668C248.287 300.004 248.156 300.334 247.992 300.658C247.832 300.982 247.646 301.297 247.436 301.602C247.229 301.906 247.016 302.193 246.797 302.463C246.285 303.092 245.705 303.697 245.057 304.279H248.596V305H243.867V304.402C244.598 303.801 245.25 303.178 245.824 302.533C246.07 302.256 246.311 301.961 246.545 301.648C246.779 301.336 246.988 301.016 247.172 300.688C247.355 300.355 247.502 300.02 247.611 299.68C247.725 299.336 247.781 298.998 247.781 298.666C247.781 298.42 247.744 298.205 247.67 298.021C247.596 297.838 247.496 297.686 247.371 297.564C247.246 297.443 247.102 297.354 246.938 297.295C246.777 297.232 246.609 297.201 246.434 297.201H246.146ZM254.643 303.055C254.643 303.34 254.588 303.607 254.479 303.857C254.373 304.107 254.227 304.326 254.039 304.514C253.852 304.701 253.633 304.85 253.383 304.959C253.133 305.064 252.865 305.117 252.58 305.117H252.223C251.938 305.117 251.668 305.064 251.414 304.959C251.164 304.85 250.945 304.701 250.758 304.514C250.57 304.326 250.422 304.107 250.312 303.857C250.207 303.607 250.154 303.34 250.154 303.055V298.543C250.154 298.258 250.207 297.99 250.312 297.74C250.422 297.49 250.57 297.271 250.758 297.084C250.945 296.896 251.164 296.75 251.414 296.645C251.668 296.535 251.938 296.48 252.223 296.48H252.58C252.865 296.48 253.133 296.535 253.383 296.645C253.633 296.75 253.852 296.896 254.039 297.084C254.227 297.271 254.373 297.49 254.479 297.74C254.588 297.99 254.643 298.258 254.643 298.543V303.055ZM253.887 298.543C253.887 298.355 253.852 298.182 253.781 298.021C253.711 297.857 253.615 297.715 253.494 297.594C253.373 297.473 253.23 297.377 253.066 297.307C252.906 297.236 252.732 297.201 252.545 297.201H252.258C252.07 297.201 251.895 297.236 251.73 297.307C251.57 297.377 251.428 297.473 251.303 297.594C251.182 297.715 251.086 297.857 251.016 298.021C250.945 298.182 250.91 298.355 250.91 298.543V303.055C250.91 303.242 250.945 303.418 251.016 303.582C251.086 303.742 251.182 303.885 251.303 304.01C251.428 304.131 251.57 304.227 251.73 304.297C251.895 304.367 252.07 304.402 252.258 304.402H252.545C252.732 304.402 252.906 304.367 253.066 304.297C253.23 304.227 253.373 304.131 253.494 304.01C253.615 303.885 253.711 303.742 253.781 303.582C253.852 303.418 253.887 303.242 253.887 303.055V298.543ZM260.818 303.055C260.818 303.34 260.764 303.607 260.654 303.857C260.549 304.107 260.402 304.326 260.215 304.514C260.027 304.701 259.809 304.85 259.559 304.959C259.309 305.064 259.041 305.117 258.756 305.117H258.398C258.113 305.117 257.844 305.064 257.59 304.959C257.34 304.85 257.121 304.701 256.934 304.514C256.746 304.326 256.598 304.107 256.488 303.857C256.383 303.607 256.33 303.34 256.33 303.055V298.543C256.33 298.258 256.383 297.99 256.488 297.74C256.598 297.49 256.746 297.271 256.934 297.084C257.121 296.896 257.34 296.75 257.59 296.645C257.844 296.535 258.113 296.48 258.398 296.48H258.756C259.041 296.48 259.309 296.535 259.559 296.645C259.809 296.75 260.027 296.896 260.215 297.084C260.402 297.271 260.549 297.49 260.654 297.74C260.764 297.99 260.818 298.258 260.818 298.543V303.055ZM260.062 298.543C260.062 298.355 260.027 298.182 259.957 298.021C259.887 297.857 259.791 297.715 259.67 297.594C259.549 297.473 259.406 297.377 259.242 297.307C259.082 297.236 258.908 297.201 258.721 297.201H258.434C258.246 297.201 258.07 297.236 257.906 297.307C257.746 297.377 257.604 297.473 257.479 297.594C257.357 297.715 257.262 297.857 257.191 298.021C257.121 298.182 257.086 298.355 257.086 298.543V303.055C257.086 303.242 257.121 303.418 257.191 303.582C257.262 303.742 257.357 303.885 257.479 304.01C257.604 304.131 257.746 304.227 257.906 304.297C258.07 304.367 258.246 304.402 258.434 304.402H258.721C258.908 304.402 259.082 304.367 259.242 304.297C259.406 304.227 259.549 304.131 259.67 304.01C259.791 303.885 259.887 303.742 259.957 303.582C260.027 303.418 260.062 303.242 260.062 303.055V298.543ZM268.723 305V300.605C268.723 300.461 268.695 300.326 268.641 300.201C268.586 300.072 268.512 299.961 268.418 299.867C268.324 299.773 268.213 299.699 268.084 299.645C267.959 299.59 267.824 299.562 267.68 299.562H267.322C267.178 299.562 267.041 299.59 266.912 299.645C266.787 299.699 266.676 299.773 266.578 299.867C266.484 299.961 266.41 300.072 266.355 300.201C266.301 300.326 266.273 300.461 266.273 300.605V305H265.559V300.605C265.559 300.461 265.531 300.326 265.477 300.201C265.422 300.072 265.346 299.961 265.248 299.867C265.154 299.773 265.043 299.699 264.914 299.645C264.789 299.59 264.654 299.562 264.51 299.562H264.152C264.008 299.562 263.871 299.59 263.742 299.645C263.617 299.699 263.508 299.773 263.414 299.867C263.32 299.961 263.246 300.072 263.191 300.201C263.137 300.326 263.109 300.461 263.109 300.605V305H262.389V299H262.629L263.021 299.609C263.186 299.387 263.391 299.211 263.637 299.082C263.887 298.949 264.158 298.883 264.451 298.883H264.51C264.85 298.883 265.156 298.967 265.43 299.135C265.703 299.303 265.914 299.525 266.062 299.803C266.137 299.666 266.229 299.541 266.338 299.428C266.447 299.314 266.568 299.219 266.701 299.141C266.834 299.059 266.979 298.996 267.135 298.953C267.291 298.906 267.453 298.883 267.621 298.883H267.68C267.922 298.883 268.15 298.93 268.365 299.023C268.58 299.113 268.768 299.238 268.928 299.398C269.088 299.559 269.213 299.746 269.303 299.961C269.396 300.176 269.443 300.404 269.443 300.646V305H268.723ZM274.893 303.354C274.893 303.596 274.846 303.824 274.752 304.039C274.662 304.254 274.537 304.441 274.377 304.602C274.217 304.762 274.029 304.889 273.814 304.982C273.6 305.072 273.371 305.117 273.129 305.117H272.648C272.406 305.117 272.178 305.072 271.963 304.982C271.748 304.889 271.561 304.762 271.4 304.602C271.24 304.441 271.113 304.254 271.02 304.039C270.93 303.824 270.885 303.596 270.885 303.354V296.598H271.605V299.504C271.77 299.309 271.967 299.156 272.197 299.047C272.428 298.938 272.678 298.883 272.947 298.883H273.129C273.371 298.883 273.6 298.93 273.814 299.023C274.029 299.113 274.217 299.238 274.377 299.398C274.537 299.559 274.662 299.746 274.752 299.961C274.846 300.176 274.893 300.404 274.893 300.646V303.354ZM274.172 300.605C274.172 300.461 274.145 300.326 274.09 300.201C274.035 300.072 273.961 299.961 273.867 299.867C273.773 299.773 273.662 299.699 273.533 299.645C273.408 299.59 273.273 299.562 273.129 299.562H272.648C272.504 299.562 272.367 299.59 272.238 299.645C272.113 299.699 272.004 299.773 271.91 299.867C271.816 299.961 271.742 300.072 271.688 300.201C271.633 300.326 271.605 300.461 271.605 300.605V303.395C271.605 303.539 271.633 303.676 271.688 303.805C271.742 303.93 271.816 304.039 271.91 304.133C272.004 304.227 272.113 304.301 272.238 304.355C272.367 304.41 272.504 304.438 272.648 304.438H273.129C273.273 304.438 273.408 304.41 273.533 304.355C273.662 304.301 273.773 304.227 273.867 304.133C273.961 304.039 274.035 303.93 274.09 303.805C274.145 303.676 274.172 303.539 274.172 303.395V300.605Z" fill="black" fill-opacity="0.36"/>
<defs>
<filter id="filter0_d_3486_41184" x="63" y="27" width="261.001" height="179" filterUnits="userSpaceOnUse" color-interpolation-filters="sRGB">
<feFlood flood-opacity="0" result="BackgroundImageFix"/>
<feColorMatrix in="SourceAlpha" type="matrix" values="0 0 0 0 0 0 0 0 0 0 0 0 0 0 0 0 0 0 127 0" result="hardAlpha"/>
<feOffset dy="9"/>
<feGaussianBlur stdDeviation="8"/>
<feComposite in2="hardAlpha" operator="out"/>
<feColorMatrix type="matrix" values="0 0 0 0 0.105882 0 0 0 0 0.403922 0 0 0 0 1 0 0 0 0.05 0"/>
<feBlend mode="normal" in2="BackgroundImageFix" result="effect1_dropShadow_3486_41184"/>
<feBlend mode="normal" in="SourceGraphic" in2="effect1_dropShadow_3486_41184" result="shape"/>
</filter>
<filter id="filter1_d_3486_41184" x="197.731" y="56.105" width="91.6653" height="95.6924" filterUnits="userSpaceOnUse" color-interpolation-filters="sRGB">
<feFlood flood-opacity="0" result="BackgroundImageFix"/>
<feColorMatrix in="SourceAlpha" type="matrix" values="0 0 0 0 0 0 0 0 0 0 0 0 0 0 0 0 0 0 127 0" result="hardAlpha"/>
<feOffset dy="4"/>
<feGaussianBlur stdDeviation="2"/>
<feComposite in2="hardAlpha" operator="out"/>
<feColorMatrix type="matrix" values="0 0 0 0 0 0 0 0 0 0 0 0 0 0 0 0 0 0 0.25 0"/>
<feBlend mode="normal" in2="BackgroundImageFix" result="effect1_dropShadow_3486_41184"/>
<feBlend mode="normal" in="SourceGraphic" in2="effect1_dropShadow_3486_41184" result="shape"/>
</filter>
<filter id="filter2_d_3486_41184" x="204.051" y="55.1421" width="91.6653" height="95.6924" filterUnits="userSpaceOnUse" color-interpolation-filters="sRGB">
<feFlood flood-opacity="0" result="BackgroundImageFix"/>
<feColorMatrix in="SourceAlpha" type="matrix" values="0 0 0 0 0 0 0 0 0 0 0 0 0 0 0 0 0 0 127 0" result="hardAlpha"/>
<feOffset dy="4"/>
<feGaussianBlur stdDeviation="2"/>
<feComposite in2="hardAlpha" operator="out"/>
<feColorMatrix type="matrix" values="0 0 0 0 0.105882 0 0 0 0 0.403922 0 0 0 0 1 0 0 0 0.1 0"/>
<feBlend mode="normal" in2="BackgroundImageFix" result="effect1_dropShadow_3486_41184"/>
<feBlend mode="normal" in="SourceGraphic" in2="effect1_dropShadow_3486_41184" result="shape"/>
</filter>
<filter id="filter3_di_3486_41184" x="171.742" y="81.0127" width="121.653" height="91.3325" filterUnits="userSpaceOnUse" color-interpolation-filters="sRGB">
<feFlood flood-opacity="0" result="BackgroundImageFix"/>
<feColorMatrix in="SourceAlpha" type="matrix" values="0 0 0 0 0 0 0 0 0 0 0 0 0 0 0 0 0 0 127 0" result="hardAlpha"/>
<feOffset dy="-3.14746"/>
<feGaussianBlur stdDeviation="3.93433"/>
<feComposite in2="hardAlpha" operator="out"/>
<feColorMatrix type="matrix" values="0 0 0 0 0 0 0 0 0 0.407843 0 0 0 0 1 0 0 0 0.1 0"/>
<feBlend mode="normal" in2="BackgroundImageFix" result="effect1_dropShadow_3486_41184"/>
<feBlend mode="normal" in="SourceGraphic" in2="effect1_dropShadow_3486_41184" result="shape"/>
<feColorMatrix in="SourceAlpha" type="matrix" values="0 0 0 0 0 0 0 0 0 0 0 0 0 0 0 0 0 0 127 0" result="hardAlpha"/>
<feOffset dy="-4"/>
<feGaussianBlur stdDeviation="2"/>
<feComposite in2="hardAlpha" operator="arithmetic" k2="-1" k3="1"/>
<feColorMatrix type="matrix" values="0 0 0 0 0.0708333 0 0 0 0 0.444368 0 0 0 0 1 0 0 0 1 0"/>
<feBlend mode="normal" in2="shape" result="effect2_innerShadow_3486_41184"/>
</filter>
</defs>
</svg>
