<svg t="1692260746618" class="icon" viewBox="0 0 1024 1024" version="1.1" xmlns="http://www.w3.org/2000/svg" p-id="11826" width="1em" height="1em"><path d="M912.341333 259.242667a42.666667 42.666667 0 0 0-46.506666 9.258666L725.333333 409.002667V213.333333a42.666667 42.666667 0 0 0-42.666666-42.666666H376.661333l85.333334 85.333333H640v178.005333l90.496 90.496L853.333333 401.664v245.674667l85.333334 85.333333V298.666667a42.666667 42.666667 0 0 0-26.325334-39.424zM128 853.333333h554.666667a42.666667 42.666667 0 0 0 42.666666-42.666666v-25.002667l140.501334 140.501333 60.330666-60.330666-768-768-60.330666 60.330666 15.445333 15.445334A42.410667 42.410667 0 0 0 85.333333 213.333333v597.333334a42.666667 42.666667 0 0 0 42.666667 42.666666zM170.666667 256h25.002666L640 700.330667V768H170.666667V256z" fill="currentColor" p-id="11827"></path></svg>
