<svg width="12" height="14" viewBox="0 0 12 14" fill="none" xmlns="http://www.w3.org/2000/svg">
<path d="M10.0843 0.743636L10.9084 3.94685C10.9301 4.03135 10.9179 4.12101 10.8743 4.19657C10.8306 4.27213 10.7591 4.32758 10.6751 4.351L7.49622 5.23693C7.418 5.2589 7.33445 5.25154 7.26127 5.21623C7.1881 5.18093 7.13033 5.12012 7.09884 5.04522L7.08342 4.9986L6.93304 4.41372C6.91131 4.32922 6.92357 4.23957 6.96719 4.164C7.01082 4.08844 7.08233 4.033 7.16638 4.00958L8.66941 3.59025C7.86763 3.18745 6.96833 3.01948 6.07521 3.1057C5.1821 3.19192 4.33154 3.52882 3.62161 4.07755C2.91169 4.62627 2.37132 5.36448 2.06281 6.20705C1.7543 7.04961 1.69022 7.96222 1.87796 8.83963C2.0657 9.71704 2.49761 10.5235 3.12389 11.1661C3.75017 11.8086 4.54531 12.2611 5.41761 12.4712C6.28992 12.6814 7.20387 12.6408 8.05407 12.354C8.90427 12.0672 9.65609 11.5459 10.2228 10.8503L10.29 10.7659C10.3033 10.7482 10.3215 10.7248 10.3427 10.6947C10.3928 10.6255 10.4675 10.5782 10.5515 10.5625C10.6355 10.5468 10.7223 10.5639 10.794 10.6104L11.3537 10.9743C11.3904 10.9981 11.4221 11.0289 11.447 11.065C11.4719 11.101 11.4894 11.1416 11.4985 11.1844C11.5077 11.2272 11.5083 11.2715 11.5004 11.3145C11.4925 11.3576 11.4761 11.3987 11.4523 11.4354L11.4432 11.4486L11.345 11.5813C10.6391 12.4902 9.69015 13.1806 8.6081 13.5726C7.52605 13.9646 6.35511 14.0422 5.23082 13.7963C4.10653 13.5504 3.07486 12.9912 2.25522 12.1833C1.43559 11.3754 0.861508 10.3519 0.59943 9.23125C0.337351 8.11062 0.397992 6.93868 0.774333 5.85109C1.15067 4.7635 1.82733 3.80472 2.72597 3.08574C3.62461 2.36676 4.70849 1.91697 5.85216 1.78844C6.99582 1.65991 8.15251 1.85789 9.18832 2.35947L8.85813 1.07803C8.8364 0.993535 8.84866 0.90388 8.89228 0.828319C8.93591 0.752757 9.00742 0.697313 9.09147 0.673889L9.67375 0.51201C9.75891 0.488297 9.84999 0.499377 9.92698 0.542814C10.004 0.58625 10.0605 0.658487 10.0843 0.743636Z" fill="black" fill-opacity="0.72"/>
</svg>
