<svg width="14" height="14" viewBox="0 0 14 14" fill="none" xmlns="http://www.w3.org/2000/svg">
<path d="M7.00806 5.10332C6.54088 5.10332 6.10338 5.28457 5.77213 5.61582C5.44244 5.94707 5.25963 6.38457 5.25963 6.85176C5.25963 7.31895 5.44244 7.75644 5.77213 8.0877C6.10338 8.41738 6.54088 8.6002 7.00806 8.6002C7.47525 8.6002 7.91275 8.41738 8.244 8.0877C8.57369 7.75644 8.7565 7.31895 8.7565 6.85176C8.7565 6.38457 8.57369 5.94707 8.244 5.61582C8.08221 5.45278 7.88963 5.32352 7.67746 5.23554C7.46529 5.14756 7.23775 5.10262 7.00806 5.10332ZM13.4502 8.78301L12.4284 7.90957C12.4768 7.6127 12.5018 7.30957 12.5018 7.00801C12.5018 6.70645 12.4768 6.40176 12.4284 6.10645L13.4502 5.23301C13.5274 5.16692 13.5827 5.07891 13.6087 4.98066C13.6346 4.88242 13.63 4.7786 13.5956 4.68301L13.5815 4.64238C13.3003 3.85596 12.8789 3.127 12.3378 2.49082L12.3096 2.45801C12.2439 2.38075 12.1563 2.32521 12.0584 2.29871C11.9605 2.27221 11.8569 2.276 11.7612 2.30957L10.4924 2.76113C10.0237 2.37676 9.50181 2.07363 8.93619 1.8627L8.69088 0.536133C8.67237 0.436199 8.62389 0.344262 8.55189 0.272536C8.47988 0.20081 8.38776 0.15269 8.28775 0.13457L8.24556 0.126758C7.43306 -0.0201172 6.57681 -0.0201172 5.76431 0.126758L5.72213 0.13457C5.62212 0.15269 5.53 0.20081 5.45799 0.272536C5.38599 0.344262 5.33751 0.436199 5.319 0.536133L5.07213 1.86895C4.51186 2.08156 3.98993 2.38395 3.52681 2.76426L2.24869 2.30957C2.15301 2.27573 2.0493 2.27181 1.95134 2.29832C1.85338 2.32483 1.7658 2.38053 1.70025 2.45801L1.67213 2.49082C1.13196 3.12768 0.710676 3.85646 0.428377 4.64238L0.414314 4.68301C0.344002 4.87832 0.401814 5.09707 0.559627 5.23301L1.594 6.11582C1.54556 6.40957 1.52213 6.70957 1.52213 7.00645C1.52213 7.30645 1.54556 7.60645 1.594 7.89707L0.562752 8.77988C0.485557 8.84597 0.430309 8.93398 0.404352 9.03223C0.378395 9.13048 0.382959 9.23429 0.417439 9.32988L0.431502 9.37051C0.714314 10.1564 1.1315 10.883 1.67525 11.5221L1.70338 11.5549C1.76909 11.6321 1.85666 11.6877 1.95457 11.7142C2.05247 11.7407 2.15611 11.7369 2.25181 11.7033L3.52994 11.2486C3.99556 11.6314 4.51431 11.9346 5.07525 12.1439L5.32213 13.4768C5.34063 13.5767 5.38911 13.6686 5.46112 13.7404C5.53312 13.8121 5.62525 13.8602 5.72525 13.8783L5.76744 13.8861C6.58793 14.0338 7.4282 14.0338 8.24869 13.8861L8.29088 13.8783C8.39088 13.8602 8.48301 13.8121 8.55501 13.7404C8.62702 13.6686 8.67549 13.5767 8.694 13.4768L8.93931 12.1502C9.50494 11.9377 10.0268 11.6361 10.4956 11.2518L11.7643 11.7033C11.86 11.7372 11.9637 11.7411 12.0617 11.7146C12.1596 11.6881 12.2472 11.6324 12.3128 11.5549L12.3409 11.5221C12.8846 10.8799 13.3018 10.1564 13.5846 9.37051L13.5987 9.32988C13.6659 9.13613 13.6081 8.91895 13.4502 8.78301ZM7.00806 9.59863C5.49088 9.59863 4.26119 8.36895 4.26119 6.85176C4.26119 5.33457 5.49088 4.10488 7.00806 4.10488C8.52525 4.10488 9.75494 5.33457 9.75494 6.85176C9.75494 8.36895 8.52525 9.59863 7.00806 9.59863Z" fill="black" fill-opacity="0.72"/>
</svg>
