<svg xmlns="http://www.w3.org/2000/svg" width="14" id="" height="14" viewBox="0 0 14 14" fill="none">
  <rect x="7.33337" y="0.333344" width="6" height="6" rx="0.666667" fill="#1B67FF" />
  <rect x="0.333374" y="7.66666" width="6" height="6" rx="0.666667" fill="#1B67FF" />
  <path fill-rule="evenodd" clip-rule="evenodd" d="M3.08368 1.10129C4.0149 0.518256 5.10482 0.333008 5.83328 0.333008V1.66634C5.28396 1.66634 4.45722 1.81443 3.79122 2.2314C3.16099 2.62598 2.66659 3.09208 2.66659 4.16634L1.33325 4.16634C1.33325 2.57393 2.11669 1.7067 3.08368 1.10129Z" fill="#1B67FF" />
  <path d="M2.2101 6.31059C2.14535 6.38816 2.02702 6.39073 1.95896 6.31605L0.254134 4.44527C0.156611 4.33825 0.232537 4.16634 0.377322 4.16634L3.64373 4.16634C3.7851 4.16634 3.86227 4.33128 3.77168 4.43981L2.2101 6.31059Z" fill="#1B67FF" />
  <path fill-rule="evenodd" clip-rule="evenodd" d="M10.7496 13.0224C9.81838 13.6055 8.72846 13.7907 8 13.7907V12.4574C8.54932 12.4574 9.37606 12.3093 10.0421 11.8923C10.6723 11.4977 11.1667 11.0316 11.1667 9.95738H12.5C12.5 11.5498 11.7166 12.417 10.7496 13.0224Z" fill="#1B67FF" />
  <path d="M11.6232 7.81313C11.6879 7.73556 11.8063 7.73299 11.8743 7.80767L13.5791 9.67845C13.6767 9.78547 13.6007 9.95738 13.456 9.95738H10.1896C10.0482 9.95738 9.97101 9.79244 10.0616 9.68391L11.6232 7.81313Z" fill="#1B67FF" />
</svg>
