<svg xmlns="http://www.w3.org/2000/svg" width="18" height="18" viewBox="0 0 18 18" fill="none">
  <path d="M2.18127 4.79539C2.02391 4.97285 1.96901 5.17775 2.01655 5.41011L2.25377 12.721C2.27386 13.0558 2.46136 13.3805 2.74127 13.5654L8.9916 17.4912C9.2715 17.676 9.7087 17.6833 10.0335 17.4958L15.8791 14.1208C16.2039 13.9333 16.4162 13.551 16.3961 13.2162L16.1589 5.9053C16.1113 5.67294 16.0638 5.44059 15.8863 5.28323C15.8488 5.21828 15.7089 5.12588 15.6714 5.06092L9.4586 1.20006C9.1412 0.950297 8.7039 0.942937 8.3791 1.13044L2.53348 4.50544C2.40357 4.58044 2.31117 4.72039 2.18127 4.79539ZM9.1313 9.18319L14.6522 5.99573L14.8571 6.05064L15.0742 13.0267L9.4884 16.2517L3.5555 12.5756L3.33838 5.59958L9.1313 9.18319Z" fill="#2C7EFF"/>
</svg>
