<svg width="20" height="40" viewBox="0 0 20 40" fill="none" xmlns="http://www.w3.org/2000/svg">
<path d="M0 0H16C18.2091 0 20 1.79086 20 4V36C20 38.2091 18.2091 40 16 40H0V0Z" fill="#C0C0C0"/>
<path d="M7.60594 19.9997L13.3495 14.3929C13.623 14.1194 13.623 13.7091 13.3495 13.4356C13.076 13.1621 12.6658 13.1621 12.3923 13.4356L5.69141 19.9997L12.529 26.7006C12.529 26.8373 12.8025 26.8373 12.9393 26.8373C13.076 26.8373 13.3495 26.7006 13.4863 26.5638C13.7598 26.2903 13.7598 25.88 13.4863 25.6065L7.60594 19.9997Z" fill="white"/>
</svg>
