<svg width="1em" height="1em" viewBox="0 0 200 200" fill="none" xmlns="http://www.w3.org/2000/svg">
<path d="M158.354 124.833C158.354 124.833 141.688 142.917 141.688 154C141.687 156.189 142.119 158.356 142.956 160.378C143.794 162.4 145.021 164.237 146.569 165.785C148.117 167.333 149.954 168.56 151.976 169.398C153.998 170.236 156.165 170.667 158.354 170.667C160.543 170.667 162.71 170.236 164.732 169.398C166.754 168.56 168.592 167.333 170.139 165.785C171.687 164.237 172.915 162.4 173.752 160.378C174.59 158.356 175.021 156.189 175.021 154C175.021 142.917 158.354 124.833 158.354 124.833ZM43.4375 112.333L83.3542 72.4167L123.271 112.333M138.021 103.5L63.5208 29L51.7708 40.75L71.6042 60.5833L28.6875 103.5C23.7708 108.167 23.7708 116.25 28.6875 121.167L74.5208 167C76.9375 169.417 80.1875 170.667 83.3542 170.667C86.5208 170.667 89.7708 169.417 92.1875 167L138.021 121.167C142.938 116.25 142.938 108.167 138.021 103.5Z" fill="black" fill-opacity="0.6" />
</svg>
