<svg width="1em" height="1em" viewBox="0 0 20 20" fill="none" xmlns="http://www.w3.org/2000/svg">
<circle cx="10" cy="10" r="7.5" stroke="black" stroke-opacity="0.6" stroke-width="1.66667"/>
<path fill-rule="evenodd" clip-rule="evenodd" d="M10.6247 4.58398V7.57941C11.5032 7.80552 12.1948 8.49715 12.4209 9.37565L15.4163 9.37565V10.6257L12.4209 10.6257C12.1948 11.5042 11.5032 12.1958 10.6247 12.4219V15.4173H9.37467V12.4219C8.49617 12.1958 7.80455 11.5042 7.57844 10.6257H4.58301V9.37565H7.57844C7.80455 8.49715 8.49617 7.80552 9.37467 7.57941V4.58398H10.6247ZM9.99967 9.16732C9.53944 9.16732 9.16634 9.54041 9.16634 10.0007C9.16634 10.4609 9.53944 10.834 9.99967 10.834C10.4599 10.834 10.833 10.4609 10.833 10.0007C10.833 9.54041 10.4599 9.16732 9.99967 9.16732ZM12.8196 8.16573L14.2927 6.69259L13.4088 5.80871L11.9357 7.28185L12.8196 8.16573ZM13.4088 14.2935L11.9357 12.8204L12.8196 11.9365L14.2927 13.4096L13.4088 14.2935ZM7.28087 11.9365L5.80773 13.4096L6.69162 14.2935L8.16476 12.8204L7.28087 11.9365ZM5.80773 6.69259L7.28087 8.16573L8.16476 7.28185L6.69162 5.80871L5.80773 6.69259Z" fill="black" fill-opacity="0.36"/>
</svg>
