<svg t="1705472556533" class="icon" viewBox="0 0 1024 1024" version="1.1" xmlns="http://www.w3.org/2000/svg" p-id="48540" width="1em" height="1em"><path d="M807.384615 159.665231c22.843077 0 41.353846 18.510769 41.353847 41.353846v590.769231c0 22.843077-18.510769 41.353846-41.353847 41.353846h-590.76923a41.353846 41.353846 0 0 1-41.353847-41.353846v-590.769231c0-22.843077 18.510769-41.353846 41.353847-41.353846h590.76923z m-590.76923-76.8a118.153846 118.153846 0 0 0-118.153847 118.153846v590.769231a118.153846 118.153846 0 0 0 118.153847 118.153846h590.76923a118.153846 118.153846 0 0 0 118.153847-118.153846v-590.769231a118.153846 118.153846 0 0 0-118.153847-118.153846h-590.76923z m255.212307 679.384615H290.894769c-14.178462 0-25.206154-3.938462-33.240615-11.579077-7.640615-7.955692-11.500308-19.062154-11.500308-33.240615V535.630769c0-12.051692 3.859692-21.110154 11.500308-27.254154a38.596923 38.596923 0 0 1 51.2 0c8.034462 6.459077 12.051692 15.990154 12.051692 28.593231V632.516923l96.019692-99.249231a40.881231 40.881231 0 0 1 29.932308-13.784615 39.384615 39.384615 0 0 1 28.672 12.445538 38.675692 38.675692 0 0 1 9.688616 44.268308 42.535385 42.535385 0 0 1-10.161231 14.808615L378.092308 687.891692h92.475077c12.918154 0 22.449231 3.938462 28.59323 11.579077a38.596923 38.596923 0 0 1 0 51.2c-6.144 7.719385-15.202462 11.579077-27.254153 11.579077z m261.277539-531.692308H552.172308c-12.051692 0-21.110154 3.780923-27.254154 11.500308a38.596923 38.596923 0 0 0 0 51.2c6.144 7.719385 15.753846 11.579077 28.593231 11.579077h92.475077L548.942769 401.723077a42.535385 42.535385 0 0 0-13.390769 30.483692c0 10.791385 4.332308 20.322462 12.918154 28.593231a39.384615 39.384615 0 0 0 28.593231 12.524308c11.027692 0 21.110154-4.647385 30.011077-13.863385l96.019692-99.249231v95.547077c0 12.603077 3.938462 22.134154 11.972923 28.593231a38.596923 38.596923 0 0 0 51.2 0c7.719385-6.144 11.579077-15.202462 11.579077-27.175385V275.298462c0-14.178462-3.859692-25.206154-11.500308-33.240616-8.034462-7.719385-19.140923-11.500308-33.240615-11.500308z" fill="currentColor" p-id="48541"></path></svg>
