<svg width="1em" height="1em" viewBox="0 0 16 16" fill="none" xmlns="http://www.w3.org/2000/svg">
<path d="M6.26362 2.24412C6.3037 2.09985 6.43506 2 6.58479 2H9.4114C9.56114 2 9.6925 2.09985 9.73258 2.24412L10.1611 3.78663C10.2097 3.96172 10.3896 4.06559 10.5656 4.02017L12.1157 3.61996C12.2607 3.58253 12.4129 3.64637 12.4877 3.77604L13.901 6.22396C13.9759 6.35364 13.9551 6.51732 13.8502 6.62416L12.7286 7.76647C12.6013 7.89613 12.6013 8.10387 12.7286 8.23354L13.8502 9.37584C13.9551 9.48269 13.9759 9.64637 13.901 9.77604L12.4877 12.224C12.4129 12.3536 12.2607 12.4175 12.1157 12.38L10.5656 11.9798C10.3896 11.9344 10.2097 12.0383 10.1611 12.2134L9.73258 13.7559C9.6925 13.9002 9.56114 14 9.4114 14H6.5848C6.43506 14 6.3037 13.9002 6.26362 13.7559L5.83517 12.2134C5.78653 12.0383 5.60662 11.9345 5.43067 11.9799L3.88074 12.38C3.73575 12.4175 3.5836 12.3536 3.50874 12.224L2.09543 9.77604C2.02056 9.64637 2.04135 9.48268 2.14626 9.37584L3.26785 8.23354C3.39516 8.10387 3.39516 7.89613 3.26785 7.76647L2.14626 6.62416C2.04135 6.51732 2.02056 6.35363 2.09543 6.22396L3.50874 3.77604C3.58361 3.64637 3.73575 3.58253 3.88074 3.61996L5.43067 4.0201C5.60662 4.06553 5.78653 3.96166 5.83516 3.78657L6.26362 2.24412Z" stroke="currentColor" stroke-width="1.33333"/>
<path d="M9.9981 8C9.9981 9.10457 9.10267 10 7.9981 10C6.89353 10 5.9981 9.10457 5.9981 8C5.9981 6.89543 6.89353 6 7.9981 6C9.10267 6 9.9981 6.89543 9.9981 8Z" stroke="currentColor" stroke-width="1.33333"/>
</svg>
