<svg width="16" height="16" viewBox="0 0 16 16" fill="none" xmlns="http://www.w3.org/2000/svg">
<path fill-rule="evenodd" clip-rule="evenodd" d="M8.38058 15.8991H7.60132C4.78844 15.8991 2.5 13.677 2.5 10.9455V7.14644H13.4819V10.9455C13.4819 13.677 11.1935 15.8991 8.38058 15.8991ZM13.3502 6.20051H13.3491H8.36474V0.219248C9.70473 0.250458 10.9579 0.700968 11.8945 1.48674C12.8333 2.27423 13.3502 3.31225 13.3502 4.4096V6.19945V6.20051ZM7.48448 6.20051H7.48338H2.5V4.40959C2.5 3.31229 3.01692 2.27427 3.95554 1.48673C4.89253 0.700558 6.1458 0.250428 7.48448 0.219238V6.19943V6.20051Z" fill="#CCCCCC"/>
<mask id="mask0_13_12851" style="mask-type:luminance" maskUnits="userSpaceOnUse" x="2" y="0" width="12" height="16">
<path fill-rule="evenodd" clip-rule="evenodd" d="M8.34377 15.899H7.63547C5.07873 15.899 2.99867 13.6769 2.99867 10.9454V7.14564H12.9806V10.9454C12.9806 13.6769 10.9005 15.899 8.34377 15.899ZM13.3505 6.20064H13.3495H8.32937V0.219238C9.67854 0.250198 10.9406 0.700628 11.8841 1.48655C12.8297 2.27417 13.3505 3.31228 13.3505 4.40964V6.19964V6.20064ZM7.52927 6.20064H7.52827H2.51807V4.40964C2.51807 3.31228 3.03778 2.27417 3.98147 1.48655C4.92357 0.700258 6.18354 0.250188 7.52927 0.219238V6.19964V6.20064Z" fill="white"/>
</mask>
<g mask="url(#mask0_13_12851)">
<rect x="2.30029" y="-0.0151367" width="5.4" height="6.67575" fill="#FF5770"/>
</g>
<path d="M8.04958 8.25392H7.94829C6.93535 8.25392 6.125 7.49202 6.125 6.53963V4.9682C6.125 4.01582 6.93535 3.25391 7.94829 3.25391H8.04958C9.06252 3.25391 9.87287 4.01581 9.87287 4.9682V6.49201C9.92352 7.44439 9.06252 8.25391 8.04958 8.25391V8.25392Z" fill="white"/>
<path d="M8.02644 7.63577H7.97242C7.43219 7.63577 7 7.0694 7 6.36143V5.19329C7 4.48533 7.43219 3.91895 7.97242 3.91895H8.02644C8.56667 3.91895 8.99886 4.48532 8.99886 5.19329V6.32603C9.02587 7.03399 8.56667 7.63576 8.02644 7.63576V7.63577Z" fill="#CCCCCC"/>
</svg>
