<svg width="1em" height="1em" viewBox="0 0 20 20" fill="none" xmlns="http://www.w3.org/2000/svg">
<path fill-rule="evenodd" clip-rule="evenodd" d="M2.49979 5.4113L17.4998 5.4113V3.74463L2.49979 3.74463V5.4113ZM9.16645 10.828L17.4998 10.828L17.4998 9.1613L9.16645 9.16129V10.828ZM17.4998 16.2446L2.49979 16.2446L2.49979 14.578L17.4998 14.578V16.2446ZM4.44916 11.4848L4.40381 11.4555L4.16351 11.3L4.02322 11.2092L3.46764 10.8497L2.68884 10.3458C2.4351 10.1816 2.4351 9.81034 2.68885 9.64615L3.46764 9.14222L4.02323 8.78272L4.16351 8.69194L4.40381 8.53645L4.44916 8.50711L5.33958 7.93094L5.8802 7.58112C6.15744 7.40173 6.52323 7.60073 6.52323 7.93094V8.57487L6.52322 9.84917V9.97568V10.0163V10.1428V11.4171V12.061C6.52322 12.3912 6.15743 12.5902 5.8802 12.4108L5.33958 12.061L4.44916 11.4848Z" fill="currentColor"/>
</svg>
