<svg width="1em" height="1em" viewBox="0 0 20 21" fill="none" xmlns="http://www.w3.org/2000/svg">
<path fill-rule="evenodd" clip-rule="evenodd" d="M17.5002 14.7528L2.50021 14.7528L2.50021 16.4194L17.5002 16.4194L17.5002 14.7528ZM10.8335 9.3361L2.50021 9.3361L2.50021 11.0028L10.8335 11.0028L10.8335 9.3361ZM2.50021 3.91944L17.5002 3.91943L17.5002 5.5861L2.50021 5.5861L2.50021 3.91944ZM15.5508 8.67923L15.5962 8.70857L15.8365 8.86406L15.9768 8.95484L16.5324 9.31434L17.3112 9.81827C17.5649 9.98246 17.5649 10.3537 17.3112 10.5179L16.5324 11.0218L15.9768 11.3813L15.8365 11.4721L15.5962 11.6276L15.5508 11.657L14.6604 12.2331L14.1198 12.5829C13.8426 12.7623 13.4768 12.5633 13.4768 12.2331L13.4768 11.5892L13.4768 10.3149L13.4768 10.1884L13.4768 10.1478L13.4768 10.0213L13.4768 8.74699L13.4768 8.10306C13.4768 7.77285 13.8426 7.57385 14.1198 7.75324L14.6604 8.10306L15.5508 8.67923Z" fill="currentColor"/>
</svg>
