<svg width="1em" height="1em" viewBox="0 0 200 200" fill="none" xmlns="http://www.w3.org/2000/svg">
<path d="M96.9189 170.762L62.6475 186.102L54.8467 168.673L89.1182 153.333L96.9189 170.762ZM52.2168 171.049L19.6865 140.167L66.3584 128.953L52.2168 171.049ZM143.734 149.808L109.459 165.149L101.658 147.721L135.934 132.379L143.734 149.808ZM185.115 120.527L160.746 158.184L141.136 114.372L185.115 120.527ZM49.6162 120.526L31.0498 124.987L22.2764 88.4736L40.8428 84.0127L49.6162 120.526ZM185.5 107.5L140.693 111.943L163.423 69.666L185.5 107.5ZM146.007 76.7119L136.965 93.5303L108.063 77.9912L117.105 61.1729L146.007 76.7119ZM67.0576 34.2656L58.0156 51.084L29.209 35.5967L37.6328 70.6543L19.0664 75.1152L10.2939 38.6064L28.8604 34.1455L29.1729 35.4453L38.1602 18.7295L67.0576 34.2656ZM106.532 55.4883L97.4902 72.3066L68.5889 56.7686L77.6309 39.9502L106.532 55.4883Z" fill="currentColor"/>
</svg>
