<svg width="125" height="30" viewBox="0 0 125 30" fill="none" xmlns="http://www.w3.org/2000/svg">
<path d="M0 11H14.5C19.7467 11 24 15.2533 24 20.5C24 25.7467 19.7467 30 14.5 30H0V11Z" fill="#21EBFE"/>
<path d="M0 0H12C16.9706 0 21 4.02944 21 9C21 13.9706 16.9706 18 12 18H0V0Z" fill="#1B67FF"/>
<rect opacity="0.7" y="9" width="10" height="21" fill="#5F94FF"/>
<rect x="7" y="6" width="6" height="6" fill="#21EBFE"/>
<path d="M32 7.30189V22.6981H42.8032V20.6927H34.3288V7.30189H32Z" fill="#1B67FF"/>
<path d="M49.5487 11.248C48.1686 11.248 47.0473 11.4852 46.2279 12.0027C45.2791 12.5633 44.6754 13.469 44.4382 14.6766L46.7023 14.8706C46.8317 14.2453 47.1552 13.7925 47.6727 13.4906C48.1039 13.2318 48.6861 13.1024 49.3977 13.1024C51.0797 13.1024 51.9207 13.8787 51.9207 15.4313V15.8841L49.4193 15.9488C47.7805 15.9919 46.4867 16.3154 45.581 16.9623C44.5891 17.6307 44.0932 18.6011 44.0932 19.8518C44.0932 20.779 44.4382 21.5337 45.1498 22.1159C45.7967 22.6981 46.7023 23 47.8667 23C48.8587 23 49.7212 22.8059 50.4543 22.4609C51.1012 22.1375 51.6403 21.6846 52.0716 21.124V22.6981H54.1848V15.5822C54.1848 14.2237 53.8398 13.1887 53.1713 12.4771C52.395 11.6577 51.1875 11.248 49.5487 11.248ZM51.9207 17.5445V18.1914C51.9207 19.0539 51.5541 19.7871 50.864 20.3693C50.174 20.9515 49.3546 21.2534 48.3843 21.2534C47.8021 21.2534 47.3277 21.1024 46.9826 20.8221C46.6161 20.5418 46.4436 20.1968 46.4436 19.7655C46.4436 18.3854 47.4786 17.6523 49.5702 17.6092L51.9207 17.5445Z" fill="#1B67FF"/>
<path d="M56.8012 7V22.6981H58.936V21.3612C59.7123 22.4394 60.8551 23 62.3861 23C64.0249 23 65.2972 22.4178 66.246 21.2534C67.1085 20.1752 67.5398 18.7736 67.5398 17.0701C67.5398 15.4313 67.1085 14.0728 66.2675 12.9946C65.3403 11.8302 64.0896 11.248 62.4939 11.248C61.1139 11.248 59.9926 11.8949 59.0869 13.2102V7H56.8012ZM61.9764 13.1024C63.0977 13.1024 63.9387 13.469 64.4778 14.2453C64.9522 14.8922 65.1893 15.841 65.1893 17.0701C65.1893 18.2992 64.9522 19.248 64.5209 19.938C63.9818 20.7358 63.1624 21.1456 62.0411 21.1456C61.0492 21.1456 60.2729 20.7358 59.7338 19.9596C59.2594 19.248 59.0222 18.3423 59.0222 17.221V17.027C59.0222 15.8194 59.3026 14.8491 59.9063 14.1159C60.4238 13.4259 61.1139 13.1024 61.9764 13.1024Z" fill="#1B67FF"/>
<path d="M74.411 11.248C72.7722 11.248 71.4569 11.8086 70.5081 12.9515C69.5162 14.0728 69.0418 15.4528 69.0418 17.1132C69.0418 18.9461 69.5593 20.3908 70.5943 21.469C71.5431 22.4825 72.8585 23 74.4973 23C75.9852 23 77.2143 22.5687 78.1846 21.7278C78.9609 21.0377 79.4569 20.1536 79.7156 19.1186H77.4299C77.128 19.7655 76.8046 20.2615 76.4164 20.5633C75.9205 20.9299 75.2736 21.124 74.4757 21.124C73.5701 21.124 72.8585 20.8221 72.341 20.2615C71.8234 19.6792 71.5431 18.8383 71.4569 17.7601H79.9097C79.8881 15.7763 79.4353 14.2237 78.5728 13.1024C77.624 11.8518 76.2224 11.248 74.411 11.248ZM74.4757 13.124C76.2871 13.124 77.3005 14.0943 77.5162 16.035H71.5C71.6294 15.0863 71.9528 14.3747 72.4272 13.8787C72.9447 13.3612 73.6132 13.124 74.4757 13.124Z" fill="#1B67FF"/>
<path d="M82.1189 7.30189V22.6981H84.4478V7.30189H82.1189Z" fill="#1B67FF"/>
<path d="M87.5088 7.30189V22.6981H94.5384C96.1772 22.6981 97.4495 22.3962 98.3551 21.7925C99.4117 21.0593 99.9508 19.938 99.9508 18.3854C99.9508 17.3504 99.692 16.5094 99.1745 15.8841C98.657 15.2588 97.8807 14.8491 96.8672 14.655C97.6435 14.3747 98.2257 13.9434 98.657 13.3827C99.0883 12.779 99.3039 12.0458 99.3039 11.1833C99.3039 9.9973 98.8942 9.07008 98.0748 8.38005C97.2123 7.6469 96.0478 7.30189 94.5384 7.30189H87.5088ZM89.8592 9.24259H93.9562C94.9912 9.24259 95.7675 9.41509 96.2419 9.78167C96.7163 10.1267 96.9535 10.6873 96.9535 11.4636C96.9535 12.283 96.7163 12.8868 96.2419 13.2749C95.7675 13.6415 94.9912 13.8356 93.9131 13.8356H89.8592V9.24259ZM89.8592 15.7547H94.2796C95.4009 15.7547 96.2419 15.9488 96.781 16.3585C97.3201 16.7682 97.6004 17.4367 97.6004 18.3423C97.6004 19.2264 97.2338 19.8733 96.5438 20.283C95.9831 20.5849 95.2069 20.7574 94.215 20.7574H89.8592V15.7547Z" fill="#1B67FF"/>
<path d="M106.819 11.248C105.18 11.248 103.865 11.8086 102.916 12.9515C101.924 14.0728 101.45 15.4528 101.45 17.1132C101.45 18.9461 101.967 20.3908 103.003 21.469C103.951 22.4825 105.267 23 106.905 23C108.393 23 109.622 22.5687 110.593 21.7278C111.369 21.0377 111.865 20.1536 112.124 19.1186H109.838C109.536 19.7655 109.213 20.2615 108.825 20.5633C108.329 20.9299 107.682 21.124 106.884 21.124C105.978 21.124 105.267 20.8221 104.749 20.2615C104.232 19.6792 103.951 18.8383 103.865 17.7601H112.318C112.296 15.7763 111.843 14.2237 110.981 13.1024C110.032 11.8518 108.631 11.248 106.819 11.248ZM106.884 13.124C108.695 13.124 109.709 14.0943 109.924 16.035H103.908C104.038 15.0863 104.361 14.3747 104.835 13.8787C105.353 13.3612 106.021 13.124 106.884 13.124Z" fill="#1B67FF"/>
<path d="M118.991 11.248C117.352 11.248 116.037 11.8086 115.088 12.9515C114.096 14.0728 113.621 15.4528 113.621 17.1132C113.621 18.9461 114.139 20.3908 115.174 21.469C116.123 22.4825 117.438 23 119.077 23C120.565 23 121.794 22.5687 122.764 21.7278C123.541 21.0377 124.037 20.1536 124.295 19.1186H122.01C121.708 19.7655 121.384 20.2615 120.996 20.5633C120.5 20.9299 119.853 21.124 119.055 21.124C118.15 21.124 117.438 20.8221 116.921 20.2615C116.403 19.6792 116.123 18.8383 116.037 17.7601H124.489C124.468 15.7763 124.015 14.2237 123.152 13.1024C122.204 11.8518 120.802 11.248 118.991 11.248ZM119.055 13.124C120.867 13.124 121.88 14.0943 122.096 16.035H116.08C116.209 15.0863 116.533 14.3747 117.007 13.8787C117.524 13.3612 118.193 13.124 119.055 13.124Z" fill="#1B67FF"/>
</svg>
