<svg width="16" height="16" viewBox="0 0 16 16" fill="none" xmlns="http://www.w3.org/2000/svg">
<path fill-rule="evenodd" clip-rule="evenodd" d="M6.42999 0.667236C6.18653 0.667236 5.96243 0.799955 5.8454 1.01345L4.93884 2.66724H2.99967H1.33366C0.965469 2.66724 0.666992 2.96571 0.666992 3.3339C0.666992 3.70209 0.965469 4.00057 1.33366 4.00057H2.33301V14.6672C2.33301 15.0354 2.63148 15.3339 2.99967 15.3339H12.9997C13.3679 15.3339 13.6663 15.0354 13.6663 14.6672V4.00057H14.667C15.0352 4.00057 15.3337 3.70209 15.3337 3.3339C15.3337 2.96571 15.0352 2.66724 14.667 2.66724H12.9997H11.0656L10.18 1.01843C10.0638 0.802161 9.83819 0.667236 9.59269 0.667236H6.42999ZM9.55214 2.66724L9.19404 2.00057H6.82481L6.45936 2.66724H9.55214ZM5.33366 4.00057H3.66634V14.0006H12.333V4.00057H10.667H5.33366ZM6.66569 5.99927C7.03388 5.99927 7.33236 6.29774 7.33236 6.66593V10.9993C7.33236 11.3675 7.03388 11.6659 6.66569 11.6659C6.2975 11.6659 5.99902 11.3675 5.99902 10.9993V6.66593C5.99902 6.29774 6.2975 5.99927 6.66569 5.99927ZM10.0003 6.66593C10.0003 6.29774 9.70185 5.99927 9.33366 5.99927C8.96547 5.99927 8.66699 6.29774 8.66699 6.66593V10.9993C8.66699 11.3675 8.96547 11.6659 9.33366 11.6659C9.70185 11.6659 10.0003 11.3675 10.0003 10.9993V6.66593Z" fill="black" fill-opacity="0.36"/>
</svg>
