<svg width="20" height="40" viewBox="0 0 20 40" fill="none" xmlns="http://www.w3.org/2000/svg">
<path d="M0 0H16C18.2091 0 20 1.79086 20 4V36C20 38.2091 18.2091 40 16 40H0V0Z" fill="#C0C0C0"/>
<path d="M12.3941 20.0003L6.65047 25.6071C6.37697 25.8806 6.37697 26.2909 6.65047 26.5644C6.92398 26.8379 7.33423 26.8379 7.60774 26.5644L14.3086 20.0003L7.47098 13.2994C7.47098 13.1627 7.19748 13.1627 7.06073 13.1627C6.92398 13.1627 6.65047 13.2994 6.51372 13.4362C6.24022 13.7097 6.24022 14.12 6.51372 14.3935L12.3941 20.0003Z" fill="white"/>
</svg>
