<svg viewBox="0 0 1024 1024" version="1.1" xmlns="http://www.w3.org/2000/svg" width="1em" height="1em"><path d="M512 277.333333a416.853333 416.853333 0 0 1 376.32 234.666667A416.853333 416.853333 0 0 1 512 746.666667 416.853333 416.853333 0 0 1 135.68 512 416.853333 416.853333 0 0 1 512 277.333333m0-85.333333C298.666667 192 116.48 324.693333 42.666667 512c73.813333 187.306667 256 320 469.333333 320s395.52-132.693333 469.333333-320c-73.813333-187.306667-256-320-469.333333-320z m0 213.333333a106.666667 106.666667 0 0 1 0 213.333334 106.666667 106.666667 0 0 1 0-213.333334m0-85.333333c-105.813333 0-192 86.186667-192 192s86.186667 192 192 192 192-86.186667 192-192-86.186667-192-192-192z" fill="currentColor"></path></svg>
