<svg width="16" height="16" viewBox="0 0 16 16" fill="none" xmlns="http://www.w3.org/2000/svg">
<path d="M4.48882 4.78016C4.72632 5.02183 4.72632 5.4135 4.48882 5.65558C4.25132 5.89725 3.8659 5.89725 3.6284 5.65558L0.678403 3.39808C0.564031 3.281 0.5 3.12383 0.5 2.96016C0.5 2.79649 0.564031 2.63932 0.678403 2.52225L3.6284 0.264746C3.8659 0.0230794 4.25132 0.0230794 4.48882 0.264746C4.72632 0.506413 4.72632 0.898496 4.48882 1.14058L2.82299 2.3435H9.04215C12.6088 2.3435 15.5005 5.19558 15.5005 8.7135C15.5005 12.1885 12.6797 15.0131 9.17382 15.0822L9.04215 15.0835H4.87549C4.79396 15.084 4.71312 15.0685 4.63758 15.0378C4.56205 15.0071 4.4933 14.9619 4.43527 14.9046C4.37723 14.8473 4.33104 14.7792 4.29934 14.7041C4.26763 14.629 4.25103 14.5484 4.25049 14.4668C4.25049 14.1468 4.4984 13.8835 4.81549 13.8535L4.87549 13.8506H9.04215C11.9188 13.8506 14.2505 11.5506 14.2505 8.7135C14.2505 5.91891 11.988 3.64558 9.17049 3.57808L9.04215 3.57683L2.82257 3.57641L4.48924 4.78016H4.48882Z" fill="black" fill-opacity="0.6"/>
</svg>
