<svg width="16" height="16" viewBox="0 0 16 16" fill="none" xmlns="http://www.w3.org/2000/svg">
<path d="M11.5112 4.78016C11.2737 5.02183 11.2737 5.4135 11.5112 5.65558C11.7487 5.89725 12.1341 5.89725 12.3716 5.65558L15.3216 3.39808C15.436 3.281 15.5 3.12383 15.5 2.96016C15.5 2.79649 15.436 2.63932 15.3216 2.52225L12.3716 0.264746C12.1341 0.0230794 11.7487 0.0230794 11.5112 0.264746C11.2737 0.506413 11.2737 0.898496 11.5112 1.14058L13.177 2.3435H6.95785C3.39118 2.3435 0.499514 5.19558 0.499514 8.7135C0.499514 12.1885 3.32035 15.0131 6.82618 15.0822L6.95785 15.0835H11.1245C11.206 15.084 11.2869 15.0685 11.3624 15.0378C11.4379 15.0071 11.5067 14.9619 11.5647 14.9046C11.6228 14.8473 11.669 14.7792 11.7007 14.7041C11.7324 14.629 11.749 14.5484 11.7495 14.4668C11.7495 14.1468 11.5016 13.8835 11.1845 13.8535L11.1245 13.8506H6.95785C4.08118 13.8506 1.74951 11.5506 1.74951 8.7135C1.74951 5.91891 4.01201 3.64558 6.82951 3.57808L6.95785 3.57683L13.1774 3.57641L11.5108 4.78016H11.5112Z" fill="black" fill-opacity="0.6"/>
</svg>
