<svg width="12" height="14" viewBox="0 0 12 14" fill="none" xmlns="http://www.w3.org/2000/svg">
<path d="M10.0843 0.744124L10.9084 3.94734C10.9301 4.03184 10.9179 4.1215 10.8743 4.19706C10.8306 4.27262 10.7591 4.32806 10.6751 4.35149L7.49622 5.23742C7.418 5.25939 7.33445 5.25202 7.26127 5.21672C7.1881 5.18142 7.13033 5.12061 7.09884 5.04571L7.08342 4.99909L6.93304 4.41421C6.91131 4.32971 6.92357 4.24005 6.96719 4.16449C7.01082 4.08893 7.08233 4.03349 7.16638 4.01006L8.66941 3.59073C7.86763 3.18794 6.96833 3.01997 6.07521 3.10619C5.1821 3.19241 4.33154 3.52931 3.62161 4.07803C2.91169 4.62676 2.37132 5.36497 2.06281 6.20754C1.7543 7.0501 1.69022 7.96271 1.87796 8.84012C2.0657 9.71752 2.49761 10.524 3.12389 11.1666C3.75017 11.8091 4.54531 12.2616 5.41761 12.4717C6.28992 12.6819 7.20387 12.6413 8.05407 12.3545C8.90427 12.0677 9.65609 11.5464 10.2228 10.8508L10.29 10.7664C10.3033 10.7487 10.3215 10.7253 10.3427 10.6952C10.3928 10.626 10.4675 10.5786 10.5515 10.563C10.6355 10.5473 10.7223 10.5644 10.794 10.6109L11.3537 10.9748C11.3904 10.9986 11.4221 11.0294 11.447 11.0654C11.4719 11.1015 11.4894 11.1421 11.4985 11.1849C11.5077 11.2277 11.5083 11.2719 11.5004 11.315C11.4925 11.3581 11.4761 11.3992 11.4523 11.4359L11.4432 11.4491L11.345 11.5818C10.6391 12.4907 9.69015 13.1811 8.6081 13.5731C7.52605 13.9651 6.35511 14.0427 5.23082 13.7968C4.10653 13.5509 3.07486 12.9916 2.25522 12.1837C1.43559 11.3759 0.861508 10.3524 0.59943 9.23173C0.337351 8.11111 0.397992 6.93917 0.774333 5.85158C1.15067 4.76398 1.82733 3.80521 2.72597 3.08623C3.62461 2.36724 4.70849 1.91746 5.85216 1.78893C6.99582 1.6604 8.15251 1.85838 9.18832 2.35996L8.85813 1.07852C8.8364 0.994023 8.84866 0.904369 8.89228 0.828807C8.93591 0.753246 9.00742 0.697801 9.09147 0.674378L9.67375 0.512499C9.75891 0.488785 9.84999 0.499865 9.92698 0.543302C10.004 0.586739 10.0605 0.658975 10.0843 0.744124Z" fill="#1B67FF"/>
</svg>
