<svg width="48" height="48" viewBox="0 0 48 48" fill="none" xmlns="http://www.w3.org/2000/svg">
<path fill-rule="evenodd" clip-rule="evenodd" d="M24.6274 3.41416C23.8463 2.63311 22.58 2.63311 21.7989 3.41416L3.41416 21.7989C2.63311 22.58 2.63311 23.8463 3.41416 24.6274L21.7989 43.0121C22.58 43.7932 23.8463 43.7932 24.6274 43.0121L43.0121 24.6274C43.7932 23.8463 43.7932 22.58 43.0121 21.7989L24.6274 3.41416ZM23 29.9999C26.866 29.9999 30 26.8659 30 22.9999C30 19.1339 26.866 15.9999 23 15.9999C19.134 15.9999 16 19.1339 16 22.9999C16 26.8659 19.134 29.9999 23 29.9999Z" fill="black" fill-opacity="0.87"/>
<circle cx="23" cy="23" r="4" fill="black"/>
</svg>
