<svg width="24" height="24" viewBox="0 0 24 24" fill="none" xmlns="http://www.w3.org/2000/svg">
<path d="M9.39836 3.36618C9.45848 3.14977 9.65552 3 9.88012 3H14.12C14.3446 3 14.5417 3.14977 14.6018 3.36618L15.2445 5.67995C15.3175 5.94258 15.5873 6.09839 15.8513 6.03025L18.1765 5.42994C18.394 5.3738 18.6222 5.46955 18.7345 5.66407L20.8545 9.33594C20.9668 9.53045 20.9356 9.77598 20.7783 9.93624L19.0959 11.6497C18.9049 11.8442 18.9049 12.1558 19.0959 12.3503L20.7783 14.0638C20.9356 14.224 20.9668 14.4696 20.8545 14.6641L18.7345 18.3359C18.6222 18.5305 18.394 18.6262 18.1765 18.5701L15.8513 17.9698C15.5873 17.9016 15.3175 18.0574 15.2445 18.3201L14.6018 20.6338C14.5417 20.8502 14.3446 21 14.12 21H9.88012C9.65552 21 9.45848 20.8502 9.39836 20.6338L8.75568 18.3202C8.68272 18.0575 8.41286 17.9017 8.14893 17.9698L5.82403 18.5701C5.60656 18.6262 5.37833 18.5305 5.26603 18.3359L3.14608 14.6641C3.03377 14.4696 3.06496 14.224 3.22232 14.0638L4.90471 12.3503C5.09568 12.1558 5.09568 11.8442 4.90471 11.6497L3.22232 9.93624C3.06496 9.77598 3.03378 9.53045 3.14608 9.33594L5.26604 5.66407C5.37834 5.46955 5.60656 5.37379 5.82403 5.42994L8.14893 6.03015C8.41285 6.09829 8.68272 5.94248 8.75568 5.67985L9.39836 3.36618Z" stroke="black" stroke-opacity="0.85" stroke-width="2"/>
<path d="M15.0001 12C15.0001 13.6569 13.6569 15 12.0001 15C10.3432 15 9.00008 13.6569 9.00008 12C9.00008 10.3431 10.3432 9 12.0001 9C13.6569 9 15.0001 10.3431 15.0001 12Z" stroke="black" stroke-opacity="0.85" stroke-width="2"/>
</svg>
