<svg xmlns="http://www.w3.org/2000/svg" xmlns:xlink="http://www.w3.org/1999/xlink" width="106.219" height="136.487" viewBox="0 0 106.219 136.487">
  <defs>
    <style>
      .cls-1 {
        fill: url(#linear-gradient);
      }

      .cls-2 {
        fill: #fff;
      }

      .cls-2, .cls-3, .cls-6, .cls-7 {
        stroke-linecap: round;
      }

      .cls-2, .cls-3 {
        stroke-linejoin: round;
      }

      .cls-10, .cls-3, .cls-5 {
        fill: #ccc;
      }

      .cls-3 {
        stroke: #ccc;
      }

      .cls-3, .cls-7 {
        stroke-width: 4px;
      }

      .cls-4 {
        fill: #ddd;
      }

      .cls-6 {
        fill: #a6a6a6;
        stroke: #fff;
        stroke-width: 2px;
      }

      .cls-11, .cls-7 {
        fill: none;
      }

      .cls-7 {
        stroke: #e8e8e8;
      }

      .cls-8 {
        fill: #e8e8e8;
      }

      .cls-10, .cls-9 {
        stroke: none;
      }
    </style>
    <linearGradient id="linear-gradient" x1="1.145" y1="0.011" x2="0.044" y2="1.003" gradientUnits="objectBoundingBox">
      <stop offset="0" stop-color="#fff"/>
      <stop offset="1" stop-color="#ccc"/>
    </linearGradient>
  </defs>
  <g id="文件格式暂不支持预览icon" transform="translate(-1415.195 -803.063)">
    <path id="路径_3801" data-name="路径 3801" class="cls-1" d="M0,0H64.461L94.72,30.027v96.267h-81.4C1,126.293,0,120.753,0,112.446Z" transform="translate(1415.195 813.256)"/>
    <g id="路径_3802" data-name="路径 3802" class="cls-2" transform="translate(1426.61 803.168)">
      <path class="cls-9" d="M 92.72006225585938 124.2934036254883 L 13.31717300415039 124.2934036254883 C 10.57555484771729 124.2934036254883 8.352900505065918 123.9973907470703 6.710936546325684 123.4135513305664 C 5.343627452850342 122.9273910522461 4.342118263244629 122.2349853515625 3.649172782897949 121.2967681884766 C 2.275881767272949 119.4374237060547 2.000009059906006 116.5317153930664 2.000009059906006 112.4460830688477 L 2.000009059906006 2.000007152557373 L 63.63676071166992 2.000007152557373 L 92.72006225585938 30.85962677001953 L 92.72006225585938 124.2934036254883 Z"/>
      <path class="cls-10" d="M 4.000007629394531 4 L 4.000007629394531 112.4460754394531 C 4.000007629394531 116.023078918457 4.21392822265625 118.6950149536133 5.257949829101562 120.1085586547852 C 5.544189453125 120.4961013793945 6.07568359375 121.0649948120117 7.380989074707031 121.5291213989258 C 8.807266235351562 122.0362548828125 10.80448913574219 122.2933959960938 13.31718444824219 122.2933959960938 L 90.72004699707031 122.2933959960938 L 90.72004699707031 31.69257354736328 L 62.81286239624023 4 L 4.000007629394531 4 M 7.62939453125e-06 0 L 64.46066284179688 0 L 94.72004699707031 30.02667999267578 L 94.72004699707031 126.2933959960938 L 13.31718444824219 126.2933959960938 C 1.002006530761719 126.2933959960938 7.62939453125e-06 120.7533950805664 7.62939453125e-06 112.4460754394531 L 7.62939453125e-06 0 Z"/>
    </g>
    <path id="路径_3803" data-name="路径 3803" class="cls-3" d="M1326.461,814.74l-.263,28.627,29.449.268Z" transform="translate(163.767 -9.677)"/>
    <path id="路径_3804" data-name="路径 3804" class="cls-4" d="M313.614,369.519c-11.3,0-21.755-5.844-31.135-17.384a4.953,4.953,0,0,1,0-6.237c9.38-11.541,19.84-17.384,31.135-17.384s21.755,5.844,31.135,17.384a4.953,4.953,0,0,1,0,6.237C335.369,363.675,324.909,369.519,313.614,369.519Zm0-33.934a13.407,13.407,0,1,0,13.407,13.407A13.424,13.424,0,0,0,313.614,335.585Z" transform="translate(1160.816 517.002)"/>
    <circle id="椭圆_55" data-name="椭圆 55" class="cls-5" cx="8.851" cy="8.851" r="8.851" transform="translate(1465.497 856.976)"/>
    <g id="矩形_8845" data-name="矩形 8845" class="cls-6" transform="translate(1444.044 825.303) rotate(52)">
      <rect class="cls-9" width="101.176" height="2.998" rx="1.499"/>
      <rect class="cls-11" x="-1" y="-1" width="103.176" height="4.998" rx="2.499"/>
    </g>
    <line id="直线_2906" data-name="直线 2906" class="cls-7" x1="19.217" transform="translate(1438.692 907.792)"/>
    <line id="直线_2907" data-name="直线 2907" class="cls-7" x1="37.519" transform="translate(1438.692 916.028)"/>
    <rect id="矩形_8846" data-name="矩形 8846" class="cls-8" width="11.064" height="11.064" transform="translate(1437.837 890.167)"/>
  </g>
</svg>
