<svg width="16" height="16" viewBox="0 0 16 16" fill="none" xmlns="http://www.w3.org/2000/svg">
<path fill-rule="evenodd" clip-rule="evenodd" d="M8.38058 15.8989H7.60132C4.78844 15.8989 2.5 13.6767 2.5 10.9453V7.14619H13.4819V10.9453C13.4819 13.6767 11.1935 15.8989 8.38058 15.8989ZM13.3502 6.20026H13.3491H8.36474V0.219004C9.70473 0.250214 10.9579 0.700724 11.8945 1.48649C12.8332 2.27398 13.3502 3.312 13.3502 4.40935V6.1992V6.20026ZM7.48448 6.20026H7.48338H2.5V4.40934C2.5 3.31204 3.01692 2.27402 3.95554 1.48648C4.89253 0.700314 6.1458 0.250184 7.48448 0.218994V6.19918V6.20026Z" fill="#CCCCCC"/>
<g clip-path="url(#clip0_7_76)">
<mask id="mask0_7_76" style="mask-type:luminance" maskUnits="userSpaceOnUse" x="2" y="0" width="12" height="16">
<path fill-rule="evenodd" clip-rule="evenodd" d="M8.34364 15.8988H7.63534C5.0786 15.8988 2.99854 13.6766 2.99854 10.9452V7.14539H12.9804V10.9452C12.9804 13.6766 10.9004 15.8988 8.34364 15.8988ZM13.3503 6.20039H13.3493H8.32924V0.218994C9.67841 0.249954 10.9405 0.700384 11.884 1.4863C12.8296 2.27392 13.3503 3.31203 13.3503 4.40939V6.19939V6.20039ZM7.52914 6.20039H7.52814H2.51794V4.40939C2.51794 3.31203 3.03765 2.27392 3.98134 1.4863C4.92344 0.700014 6.18341 0.249944 7.52914 0.218994V6.19939V6.20039Z" fill="white"/>
</mask>
<g mask="url(#mask0_7_76)">
<rect x="8.30029" y="-0.0154419" width="5.4" height="6.67575" fill="#FF5770"/>
</g>
</g>
<path d="M8.04958 8.25404H7.94829C6.93535 8.25404 6.125 7.49214 6.125 6.53975V4.96832C6.125 4.01594 6.93535 3.25403 7.94829 3.25403H8.04958C9.06252 3.25403 9.87287 4.01593 9.87287 4.96832V6.49213C9.92352 7.44451 9.06252 8.25403 8.04958 8.25403V8.25404Z" fill="white"/>
<path d="M8.02644 7.63583H7.97242C7.43219 7.63583 7 7.06946 7 6.36149V5.19335C7 4.48539 7.43219 3.91901 7.97242 3.91901H8.02644C8.56667 3.91901 8.99886 4.48538 8.99886 5.19335V6.32609C9.02587 7.03405 8.56667 7.63582 8.02644 7.63582V7.63583Z" fill="#CCCCCC"/>
<defs>
<clipPath id="clip0_7_76">
<rect width="10.8324" height="15.6798" fill="white" transform="translate(2.51794 0.218994)"/>
</clipPath>
</defs>
</svg>
