<svg width="1em" height="1em" viewBox="0 0 16 16" xmlns="http://www.w3.org/2000/svg">
<path d="M5.24323 10.1234C3.89635 10.1234 2.80417 11.2156 2.80417 12.5625C2.80417 13.9094 3.89635 15 5.24323 15C6.5901 15 7.68229 13.9078 7.68229 12.5609C7.68229 11.2141 6.5901 10.1234 5.24323 10.1234ZM5.28542 13.7391C4.5901 13.7391 4.02448 13.1734 4.02448 12.4781C4.02448 11.7828 4.58854 11.2172 5.28542 11.2172C5.98229 11.2172 6.54635 11.7812 6.54635 12.4766C6.54635 13.1719 5.98229 13.7391 5.28542 13.7391ZM10.9823 9.95469C9.62448 9.95469 8.52292 11.0562 8.52292 12.4141C8.52292 13.7719 9.62448 14.8719 10.9823 14.8719C12.3401 14.8719 13.4417 13.7703 13.4417 12.4125C13.4401 11.0563 12.3401 9.95469 10.9823 9.95469V9.95469ZM11.0448 13.6953C10.3495 13.6953 9.78385 13.1312 9.78385 12.4344C9.78385 11.7391 10.3479 11.1734 11.0448 11.1734C11.7417 11.1734 12.3057 11.7391 12.3057 12.4344C12.3057 13.1312 11.7401 13.6953 11.0448 13.6953ZM12.8526 1.25156C14.1979 2.97656 13.3573 4.53125 13.3573 4.53125L8.1026 11.2156C8.1026 11.2156 4.48854 7.05313 3.01667 4.99375C1.54479 2.93438 3.09948 1 3.09948 1L8.1026 7.39062L12.8526 1.25156V1.25156ZM8.1026 9.82812C8.45104 9.82812 8.73385 9.54531 8.73385 9.19687C8.73385 8.84844 8.45104 8.56563 8.1026 8.56563C7.75417 8.56563 7.47135 8.84844 7.47135 9.19687C7.47135 9.54531 7.75417 9.82812 8.1026 9.82812Z" fill="currentColor"/>
</svg>
