<svg viewBox="0 0 1024 1024" version="1.1" xmlns="http://www.w3.org/2000/svg" p-id="7267" width="1em" height="1em"><path d="M196.821333 136.96l4.010667 3.541333 682.666667 682.666667a42.666667 42.666667 0 0 1-56.32 63.872l-4.010667-3.541333-98.517333-98.474667A501.461333 501.461333 0 0 1 512 832c-213.333333 0-395.52-132.693333-469.333333-320a507.264 507.264 0 0 1 180.224-228.778667l-82.389334-82.346666a42.666667 42.666667 0 0 1 56.32-63.914667zM135.68 512A416.853333 416.853333 0 0 0 512 746.666667c51.626667 0 101.504-9.258667 147.712-26.581334l-45.610667-45.568A190.762667 190.762667 0 0 1 512 704c-105.813333 0-192-86.186667-192-192 0-37.504 10.837333-72.533333 29.482667-102.101333L283.989333 344.32A418.517333 418.517333 0 0 0 135.68 512zM512 192c213.333333 0 395.52 132.693333 469.333333 320a506.581333 506.581333 0 0 1-114.56 173.781333l-59.904-59.989333A421.077333 421.077333 0 0 0 888.32 512 416.853333 416.853333 0 0 0 512 277.333333c-17.066667 0-34.005333 1.024-50.645333 2.986667L388.309333 207.36A504.32 504.32 0 0 1 512 192zM405.333333 512a106.666667 106.666667 0 0 0 145.621334 99.328l-138.282667-138.24c-4.736 12.032-7.338667 25.173333-7.338667 38.912zM512 320a192.298667 192.298667 0 0 1 191.701333 202.666667L501.333333 320.341333c3.541333-0.213333 7.125333-0.298667 10.709334-0.298666z" fill="currentColor"></path></svg>
