<svg width="1em" height="1em" viewBox="0 0 16 16" fill="none" xmlns="http://www.w3.org/2000/svg">
<g clip-path="url(#clip0_27_122)">
<path fill-rule="evenodd" clip-rule="evenodd" d="M6.43032 0.66744C6.18685 0.66744 5.96275 0.800158 5.84572 1.01365L4.93917 2.66744H3H1.33398C0.965795 2.66744 0.667318 2.96592 0.667318 3.33411C0.667318 3.7023 0.965795 4.00077 1.33398 4.00077H2.33333V14.6674C2.33333 15.0356 2.63181 15.3341 3 15.3341H13C13.3682 15.3341 13.6667 15.0356 13.6667 14.6674V4.00077H14.6673C15.0355 4.00077 15.334 3.7023 15.334 3.33411C15.334 2.96592 15.0355 2.66744 14.6673 2.66744H13H11.066L10.1803 1.01864C10.0641 0.802365 9.83852 0.66744 9.59302 0.66744H6.43032ZM9.55246 2.66744L9.19436 2.00077H6.82513L6.45969 2.66744H9.55246ZM5.33398 4.00077H3.66667V14.0008H12.3333V4.00077H10.6673H5.33398ZM6.66602 5.99947C7.03421 5.99947 7.33268 6.29795 7.33268 6.66614V10.9995C7.33268 11.3677 7.03421 11.6661 6.66602 11.6661C6.29783 11.6661 5.99935 11.3677 5.99935 10.9995V6.66614C5.99935 6.29795 6.29783 5.99947 6.66602 5.99947ZM10.0007 6.66614C10.0007 6.29795 9.70217 5.99947 9.33398 5.99947C8.96579 5.99947 8.66732 6.29795 8.66732 6.66614V10.9995C8.66732 11.3677 8.96579 11.6661 9.33398 11.6661C9.70217 11.6661 10.0007 11.3677 10.0007 10.9995V6.66614Z" fill="currentColor"/>
</g>
<defs>
<clipPath id="clip0_27_122">
<rect width="16" height="16" fill="currentColor"/>
</clipPath>
</defs>
</svg>
