<svg width="1em" height="1em" viewBox="0 0 16 16" xmlns="http://www.w3.org/2000/svg">
<path d="M8.31418 14.3576C8.17199 14.5295 7.91574 14.5545 7.74387 14.4107C7.72512 14.3951 7.70637 14.3764 7.69074 14.3576C5.27512 11.442 3.85168 9.37324 3.42199 8.1498C3.23449 7.61387 3.13762 7.0498 3.13918 6.48262C3.13918 3.7498 5.3173 1.53418 8.00324 1.53418C10.6892 1.53418 12.8657 3.7498 12.8657 6.48262C12.8657 7.07168 12.7642 7.6373 12.5782 8.16074C12.1486 9.38105 10.7251 11.4467 8.31418 14.3576ZM8.00168 8.13262C8.89699 8.13262 9.62355 7.39355 9.62355 6.48262C9.62355 5.57168 8.89855 4.83418 8.00168 4.83418C7.1048 4.83418 6.3798 5.57168 6.3798 6.48262C6.3798 7.39355 7.10637 8.13262 8.00168 8.13262Z" fill="currentColor"/>
</svg>
